<svg width="69" height="69" viewBox="0 0 69 69" fill="none" xmlns="http://www.w3.org/2000/svg">
<path d="M33.9595 45.2233H33.9043C33.6279 45.2233 33.4068 45.0575 33.2962 44.8088C33.2133 44.6153 31.334 40.0275 34.5676 32.3996C37.9117 25.0757 43.4392 23.832 43.6602 23.7767C43.909 23.7214 44.1577 23.8044 44.3235 24.0255C44.4894 24.2189 48.3033 29.0555 44.1024 37.0427C39.9292 45.0022 34.5399 45.2233 33.9319 45.2233H33.9595ZM43.5497 25.2415C42.2784 25.6837 38.3539 27.4249 35.8665 32.9247C33.4344 38.6456 34.0977 42.5149 34.457 43.7862C35.7836 43.6204 39.6805 42.5701 42.9417 36.3794C46.12 30.3544 44.2959 26.4023 43.5773 25.2415H43.5497Z" fill="white"/>
<path d="M29.2888 39.2813C29.1506 39.2813 29.0124 39.2261 28.8742 39.1431C27.6305 38.2035 26.4421 36.9874 25.3919 35.495C22.2965 30.8519 23.6231 27.1209 23.6784 26.9551C23.7613 26.7616 23.9271 26.5958 24.1206 26.5405C24.314 26.4852 28.6807 25.2415 31.8867 31.46C32.0525 31.7916 31.9419 32.2062 31.5827 32.3996C31.251 32.5654 30.8365 32.4549 30.643 32.0956C28.432 27.8395 25.8065 27.7013 24.8391 27.8118C24.618 28.7515 24.314 31.4323 26.4974 34.7212C27.4371 36.0754 28.5149 37.2085 29.648 38.0376C29.9521 38.2587 30.0073 38.7009 29.7862 39.005C29.648 39.1984 29.4546 39.2813 29.2335 39.2813H29.2888Z" fill="white"/>
<path d="M12.4022 46.6052L11.6836 45.8313L12.4851 45.0851L13.7288 46.3012L14.1433 47.075L9.0028 49.894L8.39478 48.7885L12.4022 46.6052Z" fill="white"/>
<path d="M12.4024 50.0323C13.7014 48.9268 15.3872 48.8992 16.3822 50.06C17.3771 51.2484 17.0455 52.879 15.7465 53.9568C14.4476 55.0623 12.7893 55.1176 11.7667 53.9292C10.7718 52.7408 11.1034 51.1102 12.4024 50.0323ZM14.8898 52.9895C15.6912 52.2986 15.9676 51.3866 15.4978 50.8062C15.0003 50.2258 14.0883 50.3363 13.2868 51.0273C12.4853 51.7182 12.1813 52.6302 12.6788 53.2106C13.1762 53.791 14.0883 53.6804 14.8898 52.9895Z" fill="white"/>
<path d="M16.7412 54.924C17.7362 53.5421 19.3668 53.1 20.6105 54.012C21.8541 54.924 21.9094 56.5823 20.9145 57.9365C19.9195 59.3184 18.2889 59.7606 17.0452 58.8485C15.8016 57.9365 15.7463 56.2782 16.7412 54.924ZM19.8366 57.1903C20.4723 56.3335 20.5276 55.3662 19.8919 54.924C19.2839 54.4818 18.4271 54.8135 17.7915 55.6702C17.1558 56.527 17.1005 57.4667 17.7362 57.9365C18.3718 58.4063 19.2286 58.047 19.8366 57.1903Z" fill="white"/>
<path d="M27.6305 57.7155L28.5425 58.0748L25.2537 60.1752L22.4899 61.9993L21.5779 61.64L24.8667 59.5396L27.6305 57.7155ZM22.6005 57.3286C22.9045 56.5547 23.6783 56.1402 24.4522 56.4442C25.226 56.7482 25.53 57.5497 25.226 58.3235C24.922 59.0974 24.1482 59.5119 23.3743 59.2079C22.6005 58.9039 22.2965 58.1024 22.6005 57.3286ZM23.4296 57.6049C23.2914 57.9919 23.3743 58.3788 23.6783 58.4893C24.01 58.6275 24.2863 58.3511 24.4245 58.0195C24.5627 57.6326 24.4798 57.2456 24.1758 57.1351C23.8441 56.9969 23.5678 57.2457 23.4296 57.6049ZM24.8667 61.3913C25.1707 60.6174 25.9446 60.2028 26.7184 60.5069C27.4923 60.8109 27.7963 61.6124 27.4923 62.3862C27.1883 63.16 26.4144 63.5746 25.6406 63.2706C24.8667 62.9666 24.5627 62.1651 24.8667 61.3913ZM26.6908 62.0822C26.829 61.6953 26.7461 61.3083 26.4421 61.1978C26.1104 61.0596 25.834 61.3084 25.6958 61.6676C25.5577 62.0546 25.6406 62.4415 25.9446 62.552C26.2762 62.6902 26.5526 62.4138 26.6908 62.0822Z" fill="white"/>
<path d="M32.0249 58.7656H33.4344L35.0097 62.8007L36.4469 58.6827H37.8288L35.5901 64.5419H34.457L32.0249 58.7656Z" fill="white"/>
<path d="M38.6025 58.5169L42.8587 57.4391L43.1351 58.5446L40.1226 59.2908L40.399 60.4239L43.0522 59.7606L43.3285 60.8661L40.6753 61.5294L40.9794 62.7178L44.0471 61.944L44.3235 63.0495L40.0397 64.1273L38.6302 58.4893L38.6025 58.5169Z" fill="white"/>
<path d="M44.9313 59.816C44.1575 58.3512 44.6549 56.5548 46.2026 55.7256C47.1147 55.2282 47.8056 55.1729 48.5794 55.3664L48.3307 56.61C47.7503 56.4995 47.3081 56.4995 46.7001 56.8035C45.871 57.2457 45.6222 58.3236 46.0921 59.1803C46.5895 60.12 47.6121 60.4793 48.5242 59.9818C48.9387 59.7607 49.2427 59.4567 49.4086 59.0974L49.0216 58.3512L47.8885 58.9592L47.3634 57.9919L49.602 56.8035L50.7904 59.0421C50.5141 59.7607 49.9613 60.5345 49.0216 61.032C47.4187 61.8888 45.7328 61.336 44.9313 59.8436V59.816Z" fill="white"/>
<path d="M50.6802 52.6026L51.5369 51.8011L57.3684 54.3714L56.4011 55.2834L55.1298 54.703L53.3334 56.3889L53.8308 57.7155L52.8912 58.5999L50.7078 52.6026H50.6802ZM53.9967 54.1779L52.145 53.3212L52.8635 55.2281L53.9967 54.1779Z" fill="white"/>
<path d="M53.7478 49.6177L54.3835 48.6227L58.8608 48.2358L55.8207 46.3288L56.484 45.251L61.4034 48.3464L60.823 49.2584L56.1799 49.673L59.303 51.6352L58.6397 52.7131L53.7202 49.6177H53.7478Z" fill="white"/>
<path d="M9.50042 20.7919L9.22405 21.7869L8.17383 21.5105L8.53311 19.797L8.94767 19.0231L14.0882 21.8421L13.4802 22.9476L9.47278 20.7643L9.50042 20.7919Z" fill="white"/>
<path d="M12.4297 18.9678C11.1308 17.8623 10.7991 16.2317 11.7941 15.0433C12.789 13.8549 14.4473 13.9102 15.7462 14.988C17.0452 16.0935 17.3768 17.7241 16.3819 18.9126C15.3869 20.101 13.7287 20.0457 12.4297 18.9678ZM14.9171 16.0106C14.1156 15.3197 13.1759 15.2091 12.6785 15.7895C12.181 16.3699 12.4574 17.2543 13.2589 17.9452C14.0603 18.6362 15 18.7467 15.4975 18.1663C15.995 17.586 15.7186 16.7016 14.9171 16.0106Z" fill="white"/>
<path d="M16.7412 14.1036C15.7463 12.7217 15.8016 11.0359 17.0452 10.1238C18.2889 9.2118 19.8919 9.654 20.8868 11.0082C21.8818 12.3901 21.8265 14.0483 20.5828 14.988C19.3391 15.9277 17.7362 15.4578 16.7412 14.1036ZM19.8366 11.8097C19.201 10.953 18.3166 10.6213 17.7085 11.0635C17.1005 11.5057 17.1558 12.4454 17.7638 13.3021C18.3995 14.1865 19.2562 14.5182 19.8919 14.0483C20.5276 13.5785 20.4446 12.6665 19.8366 11.8097Z" fill="white"/>
<path d="M21.5502 8.90787C21.2462 8.13403 21.5502 7.3049 22.3517 7.00089C23.1256 6.69688 23.8994 7.11144 24.2034 7.85765C24.5074 8.6315 24.2034 9.46062 23.4019 9.76463C22.6281 10.0686 21.8543 9.65408 21.5502 8.90787ZM22.3517 8.57622C22.4899 8.96314 22.8216 9.18424 23.1256 9.07369C23.4572 8.9355 23.5125 8.57623 23.3743 8.21694C23.2361 7.83002 22.9045 7.60892 22.6005 7.71947C22.2688 7.85765 22.2135 8.21693 22.3517 8.57622ZM25.53 5.84012L26.4421 5.48083L25.3918 9.23952L24.5627 12.4455L23.6507 12.8047L24.7009 9.04606L25.53 5.84012ZM25.9446 10.4003C25.6406 9.62644 25.9446 8.79732 26.7461 8.49331C27.5199 8.1893 28.2938 8.60386 28.5978 9.35007C28.9018 10.1239 28.5978 10.953 27.7963 11.257C27.0224 11.5611 26.2486 11.1465 25.9446 10.4003ZM27.7687 9.70935C27.6305 9.32243 27.2988 9.10133 26.9948 9.21188C26.6632 9.35006 26.6079 9.70935 26.7461 10.0686C26.8843 10.4556 27.2159 10.6767 27.5199 10.5661C27.8516 10.4279 27.9068 10.0686 27.7687 9.70935Z" fill="white"/>
<path d="M32.1352 4.40295H33.5447L34.9818 8.54856L36.5572 4.48586H37.939L35.4793 10.3174H34.3462L32.1075 4.40295H32.1352Z" fill="white"/>
<path d="M40.0121 4.84509L44.2683 5.92295L43.9919 7.02845L40.9794 6.28224L40.7031 7.41537L43.3562 8.07866L43.0799 9.18416L40.4267 8.52086L40.1227 9.70927L43.1904 10.4831L42.914 11.5886L38.6302 10.5108L40.0398 4.87273L40.0121 4.84509Z" fill="white"/>
<path d="M44.9039 9.21186C45.6778 7.74708 47.4466 7.13906 48.9943 7.96819C49.9063 8.46566 50.3485 9.0184 50.6249 9.73698L49.4641 10.2068C49.243 9.65406 48.9943 9.29477 48.3862 8.96312C47.5571 8.52092 46.5345 8.90785 46.0647 9.76461C45.5672 10.7043 45.8436 11.7545 46.7556 12.2243C47.1702 12.4454 47.5848 12.5283 47.9717 12.4731L48.3586 11.7269L47.2255 11.1188L47.7506 10.1515L49.9892 11.3399L48.8008 13.5786C48.027 13.7444 47.1149 13.7168 46.1753 13.2193C44.5723 12.3625 44.0748 10.649 44.8763 9.15659L44.9039 9.21186Z" fill="white"/>
<path d="M54.7428 12.0861L55.5996 12.8876L53.4162 18.8849L52.4489 17.9729L52.9464 16.6463L51.15 14.9604L49.8786 15.5408L48.939 14.6564L54.7705 12.0861H54.7428ZM53.3886 15.5132L54.1072 13.6062L52.2555 14.4629L53.3886 15.5132Z" fill="white"/>
<path d="M58.695 16.2594L59.3307 17.2543L57.7554 21.4829L60.7955 19.5759L61.4588 20.6537L56.5393 23.7491L55.9589 22.8371L57.5895 18.4704L54.4665 20.4326L53.8032 19.3548L58.7227 16.2594H58.695Z" fill="white"/>
<path d="M34.7332 68.5216C16.0227 68.5216 0.822144 53.2658 0.822144 34.5C0.822144 15.7342 16.0227 0.450745 34.7332 0.450745C53.4437 0.450745 68.6443 15.7066 68.6443 34.5C68.6443 53.2934 53.4437 68.5492 34.7332 68.5492V68.5216ZM34.7332 1.80497C16.7689 1.80497 2.17637 16.4804 2.17637 34.5C2.17637 52.5196 16.7689 67.195 34.7332 67.195C52.6975 67.195 67.29 52.5196 67.29 34.5C67.29 16.4804 52.6699 1.80497 34.7332 1.80497Z" fill="white"/>
<path d="M34.7333 55.2834C23.319 55.2834 14.0052 45.942 14.0052 34.4724C14.0052 23.0029 23.2914 13.6615 34.7333 13.6615C46.1752 13.6615 55.4613 23.0029 55.4613 34.4724C55.4613 45.942 46.1752 55.2834 34.7333 55.2834ZM34.7333 14.7117C23.8718 14.7117 15.0278 23.5833 15.0278 34.5001C15.0278 45.4168 23.8718 54.2884 34.7333 54.2884C45.5948 54.2884 54.4387 45.4168 54.4387 34.5001C54.4387 23.5833 45.5948 14.7117 34.7333 14.7117Z" fill="white"/>
<path d="M7.70373 36.2688C8.68061 36.2688 9.47252 35.4769 9.47252 34.5001C9.47252 33.5232 8.68061 32.7313 7.70373 32.7313C6.72685 32.7313 5.93494 33.5232 5.93494 34.5001C5.93494 35.4769 6.72685 36.2688 7.70373 36.2688Z" fill="white"/>
<path d="M61.7627 36.2965C62.7396 36.2965 63.5315 35.5046 63.5315 34.5277C63.5315 33.5508 62.7396 32.7589 61.7627 32.7589C60.7858 32.7589 59.9939 33.5508 59.9939 34.5277C59.9939 35.5046 60.7858 36.2965 61.7627 36.2965Z" fill="white"/>
</svg>
