<svg width="68" height="69" viewBox="0 0 68 69" fill="none" xmlns="http://www.w3.org/2000/svg">
<path d="M33.9111 68.5216C15.2006 68.5216 0 53.2658 0 34.5C0 15.7342 15.2006 0.450745 33.9111 0.450745C52.6216 0.450745 67.8221 15.7066 67.8221 34.5C67.8221 53.2934 52.6216 68.5492 33.9111 68.5492V68.5216ZM33.9111 1.80498C15.9468 1.80498 1.35423 16.4528 1.35423 34.5C1.35423 52.5472 15.9468 67.195 33.9111 67.195C51.8754 67.195 66.4679 52.5196 66.4679 34.5C66.4679 16.4804 51.8477 1.80498 33.9111 1.80498Z" fill="white"/>
<path d="M5.61047 32.4272H7.01998L8.59531 34.9422L10.1706 32.4272H11.5801V38.3969H10.2812V34.5L8.59531 37.0427H8.56767L6.90943 34.5277V38.3969H5.61047V32.4272Z" fill="white"/>
<path d="M14.8687 32.3719H16.0848L18.6551 38.3968H17.2732L16.7204 37.0702H14.2054L13.6527 38.3968H12.2985L14.8687 32.3719ZM16.2506 35.8818L15.4491 33.9472L14.6476 35.8818H16.223H16.2506Z" fill="white"/>
<path d="M19.4015 32.4272H21.723C23.6024 32.4272 24.9013 33.7262 24.9013 35.3844C24.9013 37.0703 23.6024 38.3969 21.723 38.3969H19.4015V32.4272ZM20.7281 33.6157V37.2085H21.7507C22.8285 37.2085 23.5471 36.4899 23.5471 35.4121C23.5471 34.3342 22.8285 33.588 21.7507 33.588H20.7281V33.6157Z" fill="white"/>
<path d="M25.8962 32.4272H30.4011V33.5879H27.1952V34.804H30.0142V35.9648H27.1952V37.2084H30.4288V38.3692H25.8962V32.3995V32.4272Z" fill="white"/>
<path d="M33.8834 32.4272H35.21V38.3969H33.8834V32.4272Z" fill="white"/>
<path d="M36.5088 32.4272H37.7249L40.5163 36.103V32.4272H41.8152V38.3969H40.6821L37.7802 34.6106V38.3969H36.4812V32.4272H36.5088Z" fill="white"/>
<path d="M45.3807 35.8266V32.4272H46.7073V35.7989C46.7073 36.7662 47.2048 37.2637 48.0063 37.2637C48.8078 37.2637 49.3052 36.7662 49.3052 35.8266V32.3995H50.6318V35.7713C50.6318 37.5677 49.6093 38.4798 48.0063 38.4798C46.4033 38.4798 45.4084 37.5954 45.4084 35.8266H45.3807Z" fill="white"/>
<path d="M51.3501 37.5125L52.1239 36.5728C52.6491 37.015 53.2294 37.2914 53.9204 37.2914C54.4455 37.2914 54.7771 37.0703 54.7771 36.7386C54.7771 36.3793 54.5837 36.2135 53.5611 35.9648C52.345 35.6608 51.5712 35.3291 51.5712 34.1407C51.5712 33.0352 52.428 32.3167 53.6716 32.3167C54.5284 32.3167 55.2746 32.593 55.8826 33.0629L55.1917 34.0578C54.6666 33.6985 54.1415 33.4774 53.644 33.4774C53.1465 33.4774 52.8702 33.6985 52.8702 34.0025C52.8702 34.4171 53.1189 34.5276 54.1691 34.804C55.3852 35.108 56.0761 35.5502 56.0761 36.6004C56.0761 37.8165 55.1641 38.4798 53.8927 38.4798C52.9807 38.4798 52.0687 38.1758 51.3501 37.5125Z" fill="white"/>
<path d="M58.9506 32.3719H60.1667L62.737 38.3968H61.3551L60.8024 37.0702H58.2874L57.7346 38.3968H56.3804L58.9506 32.3719ZM60.3325 35.8818L59.531 33.9472L58.7295 35.8818H60.3049H60.3325Z" fill="white"/>
<path d="M30.2077 20.1285C30.2077 20.1285 29.9866 20.1009 29.8761 20.018C29.7379 19.9074 29.6274 19.7416 29.655 19.5481L29.7656 15.7342L27.0295 12.5835C26.9189 12.4453 26.8636 12.2519 26.9189 12.0584C26.9742 11.8926 27.1124 11.7267 27.2782 11.6715L31.2303 10.4554L33.6071 7.19422C33.8282 6.91785 34.2981 6.91785 34.4915 7.19422L36.8684 10.4554L40.8205 11.6715C40.9863 11.7267 41.1245 11.8649 41.1798 12.0584C41.2351 12.2519 41.1798 12.4453 41.0692 12.5835L38.3331 15.7342L38.4437 19.5481C38.4437 19.7416 38.3608 19.9074 38.2226 20.018C38.0568 20.1285 37.8909 20.1561 37.6975 20.0732L34.0217 18.6637L30.3459 20.0732C30.3459 20.0732 30.2077 20.1009 30.1525 20.1009L30.2077 20.1285ZM34.077 17.5582C34.077 17.5582 34.2152 17.5582 34.2704 17.5859L37.3658 18.7743L37.2553 15.5683C37.2553 15.4302 37.3106 15.292 37.3935 15.1814L39.715 12.5006L36.3985 11.478C36.3985 11.478 36.1774 11.3675 36.1221 11.2846L34.077 8.49318L32.0318 11.2846C32.0318 11.2846 31.866 11.4504 31.7554 11.478L28.439 12.5006L30.7605 15.1814C30.7605 15.1814 30.8987 15.4302 30.8987 15.5683L30.7881 18.7743L33.8835 17.5859C33.8835 17.5859 34.0217 17.5582 34.077 17.5582Z" fill="white"/>
<path d="M22.3864 20.1285C22.3864 20.1285 22.2482 20.1285 22.1929 20.1009L19.9266 19.2441L17.6604 20.1009C17.4945 20.1562 17.3011 20.1562 17.1353 20.0456C16.9971 19.9351 16.8865 19.7692 16.9142 19.5758L16.9971 17.2266L15.3112 15.292C15.2006 15.1538 15.1454 14.9603 15.2006 14.7669C15.2559 14.6011 15.3941 14.4352 15.5599 14.38L17.992 13.6337L19.4568 11.6162C19.6779 11.3398 20.1477 11.3398 20.3412 11.6162L21.806 13.6337L24.2381 14.38C24.4039 14.4352 24.5421 14.5734 24.5973 14.7669C24.6526 14.9603 24.5973 15.1538 24.4868 15.292L22.8009 17.2266L22.8838 19.5758C22.8838 19.7692 22.8009 19.9351 22.6627 20.0456C22.5798 20.1009 22.4693 20.1562 22.3311 20.1562L22.3864 20.1285ZM19.9266 18.0834C19.9266 18.0834 20.0648 18.0834 20.1201 18.111L21.806 18.7467L21.7507 17.0331C21.7507 16.895 21.806 16.7568 21.8889 16.6462L23.1602 15.1814L21.3361 14.6287C21.3361 14.6287 21.115 14.5181 21.0598 14.4352L19.9266 12.8875L18.7935 14.4352C18.7935 14.4352 18.6277 14.6011 18.5171 14.6287L16.6931 15.1814L17.9644 16.6462C17.9644 16.6462 18.1026 16.895 18.1026 17.0331L18.0473 18.7467L19.7332 18.111C19.7332 18.111 19.8714 18.0834 19.9266 18.0834Z" fill="white"/>
<path d="M50.4106 20.1285C50.4106 20.1285 50.2725 20.1285 50.2172 20.1009L47.9509 19.2441L45.6847 20.1009C45.5188 20.1562 45.3254 20.1562 45.1595 20.0456C45.0214 19.9351 44.9108 19.7692 44.9384 19.5758L45.0214 17.2266L43.3355 15.292C43.2249 15.1538 43.1697 14.9603 43.2249 14.7669C43.2802 14.6011 43.4184 14.4352 43.5842 14.38L46.0163 13.6337L47.4811 11.6162C47.7022 11.3398 48.172 11.3398 48.3655 11.6162L49.8303 13.6337L52.2624 14.38C52.4282 14.4352 52.5664 14.5734 52.6216 14.7669C52.6769 14.9603 52.6216 15.1538 52.5111 15.292L50.8252 17.2266L50.9081 19.5758C50.9081 19.7692 50.8252 19.9351 50.687 20.0456C50.6041 20.1009 50.4936 20.1562 50.3554 20.1562L50.4106 20.1285ZM47.9509 18.0834C47.9509 18.0834 48.0891 18.0834 48.1444 18.111L49.8303 18.7467L49.775 17.0331C49.775 16.895 49.8303 16.7568 49.9132 16.6462L51.1845 15.1814L49.3604 14.6287C49.3604 14.6287 49.1393 14.5181 49.0841 14.4352L47.9509 12.8875L46.8178 14.4352C46.8178 14.4352 46.652 14.6011 46.5414 14.6287L44.7174 15.1814L45.9887 16.6462C45.9887 16.6462 46.1269 16.895 46.1269 17.0331L46.0716 18.7467L47.7575 18.111C47.7575 18.111 47.8956 18.0834 47.9509 18.0834Z" fill="white"/>
<path d="M65.1965 26.5404H2.18324C1.87923 26.5404 1.63049 26.2917 1.63049 25.9877C1.63049 25.6837 1.87923 25.4349 2.18324 25.4349H65.1965C65.5005 25.4349 65.7492 25.6837 65.7492 25.9877C65.7492 26.2917 65.5005 26.5404 65.1965 26.5404Z" fill="white"/>
<path d="M65.1965 46.08H2.6255C2.32149 46.08 2.07275 45.8313 2.07275 45.5273C2.07275 45.2233 2.32149 44.9745 2.6255 44.9745H65.1965C65.5005 44.9745 65.7493 45.2233 65.7493 45.5273C65.7493 45.8313 65.5005 46.08 65.1965 46.08Z" fill="white"/>
<path d="M11.6354 59.1249C11.3314 59.1249 11.0826 58.8762 11.0826 58.5722V45.4997C11.0826 45.1957 11.3314 44.947 11.6354 44.947C11.9394 44.947 12.1881 45.1957 12.1881 45.4997V58.5722C12.1881 58.8762 11.9394 59.1249 11.6354 59.1249Z" fill="white"/>
<path d="M20.6452 65.0946C20.3411 65.0946 20.0924 64.8458 20.0924 64.5418V45.5273C20.0924 45.2233 20.3411 44.9745 20.6452 44.9745C20.9492 44.9745 21.1979 45.2233 21.1979 45.5273V64.5418C21.1979 64.8458 20.9492 65.0946 20.6452 65.0946Z" fill="white"/>
<path d="M29.6549 67.7754C29.3509 67.7754 29.1022 67.5266 29.1022 67.2226V45.5273C29.1022 45.2233 29.3509 44.9745 29.6549 44.9745C29.9589 44.9745 30.2077 45.2233 30.2077 45.5273V67.2226C30.2077 67.5266 29.9589 67.7754 29.6549 67.7754Z" fill="white"/>
<path d="M38.6925 67.7754C38.3885 67.7754 38.1398 67.5266 38.1398 67.2226V45.5273C38.1398 45.2233 38.3885 44.9745 38.6925 44.9745C38.9965 44.9745 39.2453 45.2233 39.2453 45.5273V67.2226C39.2453 67.5266 38.9965 67.7754 38.6925 67.7754Z" fill="white"/>
<path d="M47.7023 65.0946C47.3983 65.0946 47.1495 64.8458 47.1495 64.5418V45.5273C47.1495 45.2233 47.3983 44.9745 47.7023 44.9745C48.0063 44.9745 48.255 45.2233 48.255 45.5273V64.5418C48.255 64.8458 48.0063 65.0946 47.7023 65.0946Z" fill="white"/>
<path d="M56.7118 59.1249C56.4078 59.1249 56.1591 58.8762 56.1591 58.5722V45.4997C56.1591 45.1957 56.4078 44.947 56.7118 44.947C57.0158 44.947 57.2646 45.1957 57.2646 45.4997V58.5722C57.2646 58.8762 57.0158 59.1249 56.7118 59.1249Z" fill="white"/>
</svg>
