<svg width="69" height="69" viewBox="0 0 69 69" fill="none" xmlns="http://www.w3.org/2000/svg">
<path d="M8.44722 47.462L9.60799 47.6555C9.49745 48.3188 9.55272 48.9268 9.88436 49.5072C10.1607 49.9494 10.4924 50.1152 10.7964 49.9494C11.0728 49.7835 11.1004 49.5072 10.824 48.5675C10.4924 47.4067 10.3818 46.6052 11.3768 45.9972C12.2888 45.4445 13.3114 45.8314 13.9194 46.854C14.3616 47.5725 14.4998 48.3464 14.3893 49.0926L13.2285 49.0097C13.2838 48.374 13.2009 47.8489 12.9521 47.4067C12.7034 46.9922 12.3717 46.8816 12.123 47.0198C11.7913 47.2133 11.819 47.4896 12.123 48.4846C12.4546 49.6454 12.427 50.4468 11.5702 50.9719C10.5753 51.58 9.58035 51.1378 8.94469 50.0599C8.50249 49.3137 8.30903 48.374 8.47485 47.462H8.44722Z" fill="white"/>
<path d="M13.2288 51.9392L15.6056 49.6177L16.49 50.5297L14.1132 52.8236C13.4222 53.4869 13.3946 54.1502 13.9473 54.7306C14.5001 55.2834 15.1634 55.311 15.8267 54.6477L18.2311 52.3262L19.1155 53.2382L16.7663 55.5321C15.495 56.7481 14.1961 56.6376 13.0906 55.5321C12.0127 54.3989 11.9574 53.1276 13.2011 51.9116L13.2288 51.9392Z" fill="white"/>
<path d="M18.2035 56.2508C19.0603 54.8137 20.8844 54.3438 22.3768 55.2559C23.2612 55.8086 23.6481 56.3613 23.8968 57.1352L22.7084 57.5498C22.515 56.997 22.2939 56.6101 21.7135 56.2508C20.912 55.7533 19.8618 56.0849 19.3367 56.9141C18.7839 57.8261 19.005 58.8763 19.8618 59.4291C20.2487 59.6778 20.6633 59.7884 21.0778 59.7607L21.52 59.0422L20.4145 58.3788L20.9949 57.4392L23.1506 58.7658L21.824 60.9215C21.0502 61.0321 20.1382 60.9768 19.2261 60.424C17.6784 59.4844 17.2915 57.7432 18.1759 56.2784L18.2035 56.2508Z" fill="white"/>
<path d="M27.2962 57.5773L28.4293 57.9089L29.1755 64.2102L27.9042 63.851L27.766 62.4414L25.4168 61.7505L24.5601 62.856L23.3164 62.4967L27.3238 57.5773H27.2962ZM27.6278 61.2254L27.4067 59.2079L26.1354 60.8108L27.6278 61.253V61.2254Z" fill="white"/>
<path d="M31.5244 58.6552L34.1776 58.7381C34.9238 58.7381 35.4766 58.9868 35.8635 59.3737C36.1675 59.7054 36.3333 60.1752 36.3333 60.728C36.3057 61.6676 35.7806 62.248 35.0344 62.4967L36.3886 64.6248L34.8962 64.5695L33.7078 62.6626H32.7128L32.6575 64.4866H31.3862L31.5521 58.6552H31.5244ZM34.0118 61.5571C34.6474 61.5571 35.0067 61.253 35.0067 60.7556C35.0067 60.2028 34.6474 59.8988 34.0394 59.8712H32.7681L32.7128 61.5018H34.0118V61.5571Z" fill="white"/>
<path d="M37.6047 61.2254L40.1197 60.8108L40.3132 61.9992L37.7982 62.4138L37.6047 61.2254Z" fill="white"/>
<path d="M40.7278 58.0471L44.901 56.5823L45.288 57.6878L42.3307 58.738L42.7453 59.8988L45.3432 58.9868L45.7302 60.0923L43.1322 61.0043L43.8784 63.1324L42.69 63.547L40.7554 58.0748L40.7278 58.0471Z" fill="white"/>
<path d="M45.7027 56.1678L47.9413 54.7306C48.577 54.3437 49.1574 54.2055 49.6825 54.3161C50.1247 54.4266 50.5116 54.703 50.8156 55.1728C51.3131 55.9743 51.2025 56.7482 50.7327 57.3838L53.0542 58.3511L51.7829 59.1526L49.7377 58.2682L48.881 58.821L49.8759 60.3963L48.7981 61.0872L45.675 56.1954L45.7027 56.1678ZM49.4061 57.1627C49.9312 56.8311 50.0417 56.3612 49.793 55.9467C49.489 55.4768 49.0192 55.4492 48.4941 55.7809L47.4162 56.4718L48.3282 57.8813L49.4337 57.1904L49.4061 57.1627Z" fill="white"/>
<path d="M50.5393 52.8513L53.5794 49.7007L54.4085 50.4746L52.2528 52.7132L53.1096 53.5147L55.0166 51.5524L55.8457 52.3263L53.9387 54.2885L54.8231 55.1453L57.0065 52.879L57.8356 53.6529L54.7678 56.8311L50.5946 52.8237L50.5393 52.8513Z" fill="white"/>
<path d="M54.1873 48.8714L56.4535 45.1404L57.4208 45.7208L55.8179 48.3739L56.8128 48.982L58.2223 46.6328L59.1896 47.2132L57.7801 49.5624L58.8303 50.198L60.4609 47.5172L61.4283 48.0976L59.1343 51.8839L54.1873 48.8714Z" fill="white"/>
<path d="M11.9848 23.6385L11.5979 22.5331C12.2336 22.312 12.7587 21.9803 13.0903 21.3999C13.3667 20.9577 13.3391 20.5708 13.035 20.405C12.7587 20.2391 12.5099 20.3221 11.7914 21.013C10.9346 21.8698 10.2713 22.3396 9.27636 21.7592C8.36432 21.2064 8.19851 20.1286 8.80653 19.106C9.24873 18.3874 9.8291 17.89 10.5477 17.6412L11.0451 18.6915C10.4648 18.9402 10.0226 19.2718 9.77383 19.6864C9.52509 20.1009 9.58037 20.4326 9.82911 20.5984C10.1608 20.7919 10.3819 20.6537 11.1281 19.9075C11.9848 19.0507 12.7034 18.6914 13.5601 19.2165C14.5551 19.8246 14.6656 20.9024 14.03 21.9803C13.5878 22.7265 12.8692 23.3345 11.9848 23.6109V23.6385Z" fill="white"/>
<path d="M13.8089 17.6413L11.4321 15.3198L12.3165 14.4078L14.6933 16.7017C15.3843 17.365 16.0476 17.365 16.6003 16.8122C17.1531 16.2595 17.1254 15.5685 16.4621 14.9329L14.0577 12.6113L14.9421 11.6993L17.2913 13.9932C18.5626 15.2092 18.4797 16.5358 17.4018 17.6413C16.3239 18.7745 15.025 18.8574 13.7813 17.6413H13.8089Z" fill="white"/>
<path d="M18.2034 12.7771C17.3466 11.34 17.7335 9.51594 19.2259 8.60391C20.1103 8.05116 20.8013 7.96824 21.6028 8.07879L21.4369 9.32246C20.8565 9.23955 20.4143 9.26721 19.834 9.59886C19.0325 10.0963 18.839 11.1742 19.3641 12.0033C19.9169 12.9153 20.9395 13.2194 21.8239 12.6666C22.2108 12.4179 22.5148 12.1139 22.6806 11.7269L22.2384 11.0083L21.1329 11.6717L20.5525 10.732L22.7083 9.40542L24.0348 11.5611C23.7861 12.3073 23.3163 13.0812 22.4042 13.6339C20.8565 14.5736 19.143 14.159 18.231 12.6666L18.2034 12.7771Z" fill="white"/>
<path d="M25.6654 5.78482L26.7985 5.45319L30.806 10.3726L29.5346 10.7596L28.6502 9.65408L26.3011 10.345L26.1629 11.7545L24.9192 12.1138L25.6654 5.81249V5.78482ZM27.904 8.68675L26.6327 7.08378L26.4116 9.10134L27.8764 8.65913L27.904 8.68675Z" fill="white"/>
<path d="M31.3586 4.56867L34.0118 4.48572C34.758 4.48572 35.3384 4.65158 35.7253 5.0385C36.057 5.34251 36.2505 5.81235 36.2505 6.33746C36.2781 7.27713 35.7806 7.88515 35.0621 8.18916L36.5268 10.2067L35.0344 10.262L33.7355 8.43788H32.7405L32.7958 10.3172H31.5245L31.3586 4.541V4.56867ZM34.0118 7.30474C34.6199 7.30474 34.9791 6.94546 34.9515 6.44799C34.9515 5.89524 34.5369 5.61886 33.9289 5.61886H32.6576L32.7129 7.33241H34.0118V7.30474Z" fill="white"/>
<path d="M37.6876 7.22202L40.2026 7.60894L40.0092 8.79737L37.4941 8.38278L37.6876 7.1944V7.22202Z" fill="white"/>
<path d="M42.6624 5.50854L46.8356 6.97332L46.4487 8.0788L43.4915 7.02861L43.0769 8.18937L45.6748 9.10141L45.2879 10.2069L42.69 9.29485L41.9438 11.4229L40.7554 11.0084L42.69 5.53617L42.6624 5.50854Z" fill="white"/>
<path d="M48.8257 7.94049L51.0643 9.37765C51.6724 9.76457 52.0593 10.2621 52.1698 10.7872C52.2527 11.2294 52.1698 11.6992 51.8658 12.169C51.3683 12.9705 50.6221 13.1916 49.8483 13.0258L49.9312 15.5408L48.6599 14.7393L48.6046 12.5007L47.7479 11.9479L46.7529 13.5233L45.675 12.8323L48.7981 7.94049H48.8257ZM49.4614 11.6992C49.9865 12.0308 50.4563 11.9479 50.7327 11.5334C51.0367 11.0635 50.8709 10.6213 50.3458 10.2897L49.2679 9.59875L48.3559 11.0082L49.4614 11.6992Z" fill="white"/>
<path d="M54.7124 12.1691L57.7525 15.3197L56.9234 16.0936L54.7677 13.855L53.9109 14.6564L55.8179 16.6187L54.9888 17.3925L53.0818 15.4303L52.1974 16.287L54.3808 18.5533L53.5516 19.3272L50.4839 16.1488L54.6571 12.1414L54.7124 12.1691Z" fill="white"/>
<path d="M59.1343 17.1439L61.4006 20.8749L60.4333 21.4553L58.8303 18.8021L57.8354 19.4102L59.2449 21.7593L58.2776 22.3397L56.8681 19.9905L55.8179 20.6262L57.4485 23.307L56.4812 23.8874L54.1873 20.1011L59.1343 17.0886V17.1439Z" fill="white"/>
<path d="M34.62 68.5492C15.9095 68.5492 0.708984 53.2658 0.708984 34.5C0.708984 15.7342 15.9095 0.450745 34.62 0.450745C53.3305 0.450745 68.5311 15.7066 68.5311 34.5C68.5311 53.2934 53.3305 68.5492 34.62 68.5492ZM34.62 1.83261C16.6558 1.83261 2.06322 16.5081 2.06322 34.5276C2.06322 52.5472 16.6834 67.2227 34.62 67.2227C52.5567 67.2227 67.1769 52.5472 67.1769 34.5276C67.1769 16.5081 52.5843 1.83261 34.62 1.83261Z" fill="white"/>
<path d="M34.6201 55.311C23.2059 55.311 13.8921 45.9695 13.8921 34.5C13.8921 23.0305 23.1782 13.6891 34.6201 13.6891C46.062 13.6891 55.3482 23.0305 55.3482 34.5C55.3482 45.9695 46.062 55.311 34.6201 55.311ZM34.6201 14.7393C23.7586 14.7393 14.9147 23.6109 14.9147 34.5277C14.9147 45.4445 23.7586 54.3161 34.6201 54.3161C45.4816 54.3161 54.3256 45.4445 54.3256 34.5277C54.3256 23.6109 45.4816 14.7393 34.6201 14.7393Z" fill="white"/>
<path d="M28.1531 40.7738C28.1531 40.7738 27.9872 40.7738 27.9043 40.7185L21.4372 36.8493C21.299 36.7664 21.2161 36.6006 21.2161 36.4347C21.2161 36.2689 21.299 36.1031 21.4372 36.0201L27.9043 32.1509C28.0425 32.068 28.236 32.068 28.4018 32.1509L34.8689 36.0201C35.0071 36.1031 35.09 36.2689 35.09 36.4347C35.09 36.6006 35.0071 36.7664 34.8689 36.8493L28.4018 40.7185C28.4018 40.7185 28.236 40.7738 28.1531 40.7738ZM22.5979 36.4347L28.1531 39.7512L33.7082 36.4347L28.1531 33.1182L22.5979 36.4347Z" fill="white"/>
<path d="M28.1531 48.0148C28.1531 48.0148 27.9872 48.0149 27.9043 47.9596L21.4372 44.0903C21.299 44.0074 21.2161 43.8416 21.2161 43.6758V36.4071C21.2161 36.1584 21.4372 35.9373 21.6859 35.9373C21.9346 35.9373 22.1557 36.1584 22.1557 36.4071V43.3994L28.1531 46.9923L34.3715 43.2612C34.5096 43.1783 34.7031 43.1783 34.8689 43.2612L41.0873 46.9923L47.0847 43.3994V36.4071C47.0847 36.1584 47.3058 35.9373 47.5545 35.9373C47.8032 35.9373 48.0243 36.1584 48.0243 36.4071V43.6758C48.0243 43.8416 47.9414 44.0074 47.8032 44.0903L41.3361 47.9596C41.1979 48.0425 41.0044 48.0425 40.8386 47.9596L34.6202 44.2285L28.4018 47.9596C28.4018 47.9596 28.236 48.0148 28.1531 48.0148Z" fill="white"/>
<path d="M41.0876 40.7738C41.0876 40.7738 40.9218 40.7738 40.8389 40.7185L34.3717 36.8493C34.2336 36.7664 34.1506 36.6006 34.1506 36.4347C34.1506 36.2689 34.2336 36.1031 34.3717 36.0201L40.8389 32.1509C40.9771 32.068 41.1705 32.068 41.3364 32.1509L47.8035 36.0201C47.9417 36.1031 48.0246 36.2689 48.0246 36.4347C48.0246 36.6006 47.9417 36.7664 47.8035 36.8493L41.3364 40.7185C41.3364 40.7185 41.1705 40.7738 41.0876 40.7738ZM35.5325 36.4347L41.0876 39.7512L46.6427 36.4347L41.0876 33.1182L35.5325 36.4347Z" fill="white"/>
<path d="M34.6201 36.9044C34.6201 36.9044 34.4543 36.9044 34.3714 36.8491L27.9042 32.9799C27.766 32.897 27.6831 32.7311 27.6831 32.5653V25.2967C27.6831 25.048 27.9042 24.8268 28.1529 24.8268C28.4017 24.8268 28.6228 25.048 28.6228 25.2967V32.289L34.6201 35.8818L40.6174 32.289V25.2967C40.6174 25.048 40.8385 24.8268 41.0872 24.8268C41.336 24.8268 41.5571 25.048 41.5571 25.2967V32.5653C41.5571 32.7311 41.4742 32.897 41.336 32.9799L34.8688 36.8491C34.8688 36.8491 34.703 36.9044 34.6201 36.9044Z" fill="white"/>
<path d="M34.6201 29.6358C34.6201 29.6358 34.4543 29.6358 34.3714 29.5806L27.9042 25.7113C27.766 25.6284 27.6831 25.4626 27.6831 25.2968C27.6831 25.131 27.766 24.9651 27.9042 24.8822L34.3714 21.013C34.5095 20.9301 34.703 20.9301 34.8688 21.013L41.336 24.8822C41.4742 24.9651 41.5571 25.131 41.5571 25.2968C41.5571 25.4626 41.4742 25.6284 41.336 25.7113L34.8688 29.5806C34.8688 29.5806 34.703 29.6358 34.6201 29.6358ZM29.065 25.2968L34.6201 28.6133L40.1752 25.2968L34.6201 21.9803L29.065 25.2968Z" fill="white"/>
<path d="M34.62 44.0073C34.3713 44.0073 34.1501 43.7862 34.1501 43.5375V29.2489C34.1501 29.0002 34.3713 28.7791 34.62 28.7791C34.8687 28.7791 35.0898 29.0002 35.0898 29.2489V43.5375C35.0898 43.7862 34.8687 44.0073 34.62 44.0073Z" fill="white"/>
<path d="M20.3039 49.3138C20.3039 49.3138 20.0552 49.2585 19.9722 49.1756C19.7788 48.9822 19.7788 48.6781 19.9722 48.5123L48.6322 19.8524C48.8257 19.6589 49.1297 19.6589 49.2955 19.8524C49.4613 20.0458 49.489 20.3498 49.2955 20.5156L20.6355 49.1756C20.6355 49.1756 20.4144 49.3138 20.3039 49.3138Z" fill="white"/>
<path d="M7.59053 31.9852L5.43481 33.2841V35.7162L7.59053 37.0151L9.77388 35.7162V33.2841L7.59053 31.9852Z" fill="white"/>
<path d="M61.6494 32.0126L59.4937 33.3116V35.7437L61.6494 37.0427L63.8327 35.7437V33.3116L61.6494 32.0126Z" fill="white"/>
</svg>
