<svg width="138" height="28" viewBox="0 0 138 28" fill="none" xmlns="http://www.w3.org/2000/svg">
<path d="M13.1269 2.07145C13.3388 1.41945 14.2612 1.41945 14.4731 2.07145L16.7394 9.04656C16.8341 9.33815 17.1059 9.53557 17.4125 9.53557H24.7465C25.4321 9.53557 25.7171 10.4128 25.1625 10.8158L19.2291 15.1266C18.9811 15.3069 18.8773 15.6263 18.972 15.9179L21.2384 22.893C21.4502 23.545 20.704 24.0872 20.1494 23.6842L14.216 19.3734C13.9679 19.1931 13.6321 19.1931 13.384 19.3734L7.45065 23.6842C6.89602 24.0872 6.14977 23.545 6.36162 22.893L8.62797 15.9179C8.72271 15.6263 8.61892 15.3069 8.37089 15.1266L2.4375 10.8158C1.88288 10.4128 2.16791 9.53557 2.85347 9.53557H10.1875C10.4941 9.53557 10.7659 9.33815 10.8606 9.04656L13.1269 2.07145Z" fill="#FFC700"/>
<path d="M40.7269 2.07145C40.9388 1.41945 41.8612 1.41945 42.073 2.07145L44.3394 9.04656C44.4341 9.33815 44.7058 9.53557 45.0124 9.53557H52.3465C53.0321 9.53557 53.3171 10.4128 52.7625 10.8158L46.8291 15.1266C46.5811 15.3069 46.4773 15.6263 46.572 15.9179L48.8384 22.893C49.0502 23.545 48.304 24.0872 47.7493 23.6842L41.8159 19.3734C41.5679 19.1931 41.232 19.1931 40.984 19.3734L35.0506 23.6842C34.496 24.0872 33.7497 23.545 33.9616 22.893L36.2279 15.9179C36.3227 15.6263 36.2189 15.3069 35.9709 15.1266L30.0375 10.8158C29.4829 10.4128 29.7679 9.53557 30.4534 9.53557H37.7875C38.0941 9.53557 38.3658 9.33815 38.4606 9.04656L40.7269 2.07145Z" fill="#FFC700"/>
<path d="M68.3269 2.07145C68.5387 1.41945 69.4612 1.41945 69.673 2.07145L71.9394 9.04656C72.0341 9.33815 72.3058 9.53557 72.6124 9.53557H79.9465C80.632 9.53557 80.9171 10.4128 80.3624 10.8158L74.4291 15.1266C74.181 15.3069 74.0772 15.6263 74.172 15.9179L76.4383 22.893C76.6502 23.545 75.9039 24.0872 75.3493 23.6842L69.4159 19.3734C69.1679 19.1931 68.832 19.1931 68.584 19.3734L62.6506 23.6842C62.096 24.0872 61.3497 23.545 61.5616 22.893L63.8279 15.9179C63.9227 15.6263 63.8189 15.3069 63.5708 15.1266L57.6375 10.8158C57.0828 10.4128 57.3679 9.53557 58.0534 9.53557H65.3875C65.6941 9.53557 65.9658 9.33815 66.0605 9.04656L68.3269 2.07145Z" fill="#FFC700"/>
<path d="M95.927 2.07145C96.1388 1.41945 97.0613 1.41945 97.2731 2.07145L99.5395 9.04656C99.6342 9.33815 99.9059 9.53557 100.213 9.53557H107.547C108.232 9.53557 108.517 10.4128 107.963 10.8158L102.029 15.1266C101.781 15.3069 101.677 15.6263 101.772 15.9179L104.038 22.893C104.25 23.545 103.504 24.0872 102.949 23.6842L97.016 19.3734C96.768 19.1931 96.4321 19.1931 96.1841 19.3734L90.2507 23.6842C89.6961 24.0872 88.9498 23.545 89.1617 22.893L91.428 15.9179C91.5228 15.6263 91.419 15.3069 91.1709 15.1266L85.2376 10.8158C84.6829 10.4128 84.968 9.53557 85.6535 9.53557H92.9876C93.2942 9.53557 93.5659 9.33815 93.6606 9.04656L95.927 2.07145Z" fill="#FFC700"/>
<path d="M123.527 2.07145C123.739 1.41945 124.661 1.41945 124.873 2.07145L127.139 9.04656C127.234 9.33815 127.506 9.53557 127.812 9.53557H135.147C135.832 9.53557 136.117 10.4128 135.563 10.8158L129.629 15.1266C129.381 15.3069 129.277 15.6263 129.372 15.9179L131.638 22.893C131.85 23.545 131.104 24.0872 130.549 23.6842L124.616 19.3734C124.368 19.1931 124.032 19.1931 123.784 19.3734L117.851 23.6842C117.296 24.0872 116.55 23.545 116.762 22.893L119.028 15.9179C119.123 15.6263 119.019 15.3069 118.771 15.1266L112.838 10.8158C112.283 10.4128 112.568 9.53557 113.253 9.53557H120.588C120.894 9.53557 121.166 9.33815 121.261 9.04656L123.527 2.07145Z" fill="#FFC700"/>
</svg>
