<svg width="70" height="69" viewBox="0 0 70 69" fill="none" xmlns="http://www.w3.org/2000/svg">
<path d="M10.8423 27.646L10.7318 28.1987L8.54843 27.7565C8.35497 27.7289 8.16151 27.6736 7.88514 27.5907C8.02332 27.6736 8.13387 27.7289 8.18915 27.7565L10.5107 29.2766L10.4278 29.6635L7.71931 30.161C7.71931 30.161 7.52585 30.161 7.36002 30.161C7.36002 30.161 7.71931 30.2163 8.02332 30.2992L10.2067 30.7414L10.0961 31.2665L6.72437 30.5756L6.89019 29.7741L9.32228 29.3319C9.51574 29.3042 9.65393 29.2766 9.73684 29.2766C9.57102 29.1661 9.46047 29.0831 9.37755 29.0279L7.30475 27.6736L7.47057 26.9274L10.87 27.6184L10.8423 27.646Z" fill="white"/>
<path d="M11.9204 24.6058L11.6993 25.1862H10.7596L10.3174 26.4575L11.036 27.0379L10.8149 27.6183L7.99585 25.2414L8.21695 24.6334L11.8927 24.5781L11.9204 24.6058ZM10.2898 25.1862H8.82497C8.82497 25.1862 8.71442 25.1862 8.60387 25.1585C8.60387 25.1585 8.74206 25.2414 8.79733 25.2691L9.93047 26.1811L10.2898 25.1862Z" fill="white"/>
<path d="M11.9755 24.5229L8.88013 22.9753L9.32233 22.0909C9.90271 20.9577 10.6766 20.6261 11.6715 21.1235C12.1413 21.3723 12.4453 21.7039 12.5835 22.1738C12.7217 22.6436 12.6388 23.1411 12.3901 23.6662L11.9755 24.5229ZM9.57106 22.6989L11.7821 23.8044L11.9755 23.3898C12.169 23.0305 12.1966 22.6989 12.0861 22.3949C12.0032 22.0909 11.7544 21.8421 11.3951 21.6763C10.6766 21.317 10.1238 21.5105 9.76452 22.2567L9.54342 22.6989H9.57106Z" fill="white"/>
<path d="M14.4905 20.0733L13.4403 21.7039L10.5383 19.8246L11.5609 18.2493L11.9478 18.5256L11.2569 19.6035L12.086 20.1286L12.7217 19.1337L13.1362 19.3824L12.5006 20.405L13.3573 20.9577L14.1036 19.797L14.4905 20.0733Z" fill="white"/>
<path d="M13.1779 16.1499L12.8105 16.5992L15.4851 18.7859L15.8524 18.3366L13.1779 16.1499Z" fill="white"/>
<path d="M18.2769 15.7618L17.8347 16.204L14.8775 15.6236C14.8775 15.6236 14.7393 15.596 14.6564 15.5684C14.6564 15.5684 14.8498 15.7342 15.0157 15.9L16.6463 17.4753L16.2593 17.8623L13.772 15.4578L14.2418 14.988L17.1437 15.5684C17.1437 15.5684 17.3372 15.596 17.3925 15.6236C17.3925 15.6236 17.199 15.4578 17.0332 15.3196L15.4302 13.7719L15.8171 13.385L18.3045 15.7895L18.2769 15.7618Z" fill="white"/>
<path d="M19.3548 11.2293L18.3046 12.0032L18.9126 12.8323L19.8799 12.1413L20.1839 12.5283L19.2166 13.2192L20.0457 14.4076L19.6035 14.7393L17.5583 11.9479L19.0784 10.8424L19.3548 11.2293Z" fill="white"/>
<path d="M21.3446 13.4679L19.6311 10.4831L20.4879 9.98559C21.5934 9.34993 22.4225 9.51576 22.9752 10.4831C23.2516 10.9529 23.3069 11.3951 23.1687 11.8649C23.0305 12.3348 22.6989 12.6941 22.1737 12.9981L21.3446 13.4679ZM20.3497 10.6213L21.5934 12.777L21.9803 12.5559C22.3396 12.3624 22.533 12.1137 22.6159 11.8097C22.6989 11.5057 22.6159 11.174 22.4501 10.8147C22.0356 10.1238 21.4828 9.98559 20.7642 10.4002L20.3497 10.6489V10.6213Z" fill="white"/>
<path d="M26.6235 10.8424L26.0431 11.0911L25.4075 10.4002L24.1638 10.9253L24.2467 11.8373L23.6663 12.0861L23.5005 8.41029L24.1085 8.16156L26.6511 10.8424H26.6235ZM25.1035 10.0409L24.1085 8.96305C24.1085 8.96305 24.0256 8.88014 23.9703 8.76959C23.9703 8.76959 23.998 8.93539 23.998 8.99067L24.1085 10.4555L25.0758 10.0409H25.1035Z" fill="white"/>
<path d="M30.5478 9.81995L29.8845 9.98576L29.1383 9.21192C29.1383 9.21192 29.0001 9.07374 28.9449 9.0461C28.8896 8.99083 28.8343 8.96319 28.779 8.93555C28.7238 8.93555 28.6685 8.88029 28.6132 8.88029C28.5579 8.88029 28.475 8.88029 28.4198 8.88029L28.1987 8.93555L28.5303 10.2898L27.9776 10.428L27.1484 7.08385L28.2539 6.80748C28.4198 6.77985 28.5579 6.7522 28.6961 6.7522C28.8343 6.7522 28.9725 6.77983 29.0831 6.83511C29.1936 6.89038 29.3042 6.9733 29.3871 7.05621C29.47 7.16676 29.5253 7.27731 29.5805 7.44313C29.5805 7.55368 29.6082 7.66424 29.5805 7.77479C29.5805 7.88534 29.5529 7.99589 29.4976 8.0788C29.4423 8.16171 29.3871 8.24461 29.3042 8.32753C29.2212 8.41044 29.1383 8.46571 29.0278 8.52099C29.0278 8.52099 29.166 8.57626 29.2212 8.6039C29.2765 8.63153 29.3318 8.65917 29.3871 8.68681C29.4423 8.71444 29.4976 8.76972 29.5529 8.79736C29.6082 8.85263 29.6634 8.88028 29.7187 8.9632L30.5478 9.76468V9.81995ZM27.8117 7.41549L28.0881 8.49334L28.5579 8.38281C28.5579 8.38281 28.7238 8.32752 28.779 8.29988C28.8343 8.24461 28.8896 8.21698 28.9449 8.13407C29.0001 8.07879 29.0001 7.99587 29.0278 7.91296C29.0278 7.83005 29.0278 7.74715 29.0278 7.66424C28.9725 7.49841 28.9172 7.38785 28.779 7.33258C28.6685 7.2773 28.5027 7.24967 28.3092 7.33258L27.8394 7.44313L27.8117 7.41549Z" fill="white"/>
<path d="M32.538 9.5711L30.631 9.84747L30.1335 6.42042L31.9852 6.17169L32.0405 6.64152L30.7692 6.83498L30.9074 7.77466L32.0958 7.63647L32.1511 8.1063L30.9903 8.27214L31.1285 9.26709L32.4827 9.10125L32.538 9.5711Z" fill="white"/>
<path d="M35.4675 9.21178C35.1082 9.43288 34.7213 9.54343 34.2791 9.54343C33.7816 9.54343 33.3394 9.43288 33.0078 9.10123C32.6761 8.79722 32.5103 8.38266 32.4827 7.85755C32.4827 7.33244 32.6209 6.89024 32.9525 6.53095C33.2841 6.17166 33.7263 5.97821 34.2515 5.97821C34.6384 5.97821 34.97 6.00586 35.2188 6.11641V6.69679C34.97 6.53096 34.6384 6.44805 34.2791 6.47568C33.9198 6.47568 33.6158 6.61387 33.3947 6.86261C33.1736 7.11134 33.0631 7.44298 33.0631 7.80227C33.0631 8.18919 33.2012 8.52084 33.3947 8.71431C33.6158 8.9354 33.8922 9.04596 34.2238 9.01832C34.4726 9.01832 34.666 8.96305 34.8318 8.8525V8.02337H34.0856V7.55354L35.357 7.49827L35.4122 9.12887L35.4675 9.21178Z" fill="white"/>
<path d="M36.5452 9.51588L35.9648 9.48824L36.1307 6.03357L36.7387 6.08886L36.5452 9.51588Z" fill="white"/>
<path d="M37.0704 9.40533L37.1533 8.82494C37.1533 8.82494 37.2638 8.9355 37.3191 8.96314C37.402 9.01841 37.4573 9.04604 37.5402 9.10131C37.6231 9.12895 37.706 9.18422 37.7889 9.18422C37.8718 9.18422 37.9548 9.23951 38.01 9.23951C38.2588 9.23951 38.4246 9.2395 38.5628 9.18422C38.701 9.12895 38.7562 9.01841 38.7839 8.85259C38.7839 8.76968 38.7839 8.68676 38.7562 8.63148C38.7286 8.57621 38.6733 8.4933 38.6181 8.43802C38.5628 8.38275 38.4799 8.32748 38.397 8.2722C38.314 8.21693 38.2035 8.16166 38.1206 8.07874C38.01 7.99583 37.8995 7.91291 37.8166 7.85764C37.7337 7.77473 37.6507 7.6918 37.5955 7.60889C37.5402 7.52598 37.4849 7.41544 37.4573 7.33252C37.4296 7.22197 37.4296 7.11143 37.4573 6.97324C37.4573 6.80742 37.5402 6.66923 37.6231 6.55868C37.706 6.44813 37.8166 6.36523 37.9548 6.30995C38.0929 6.25468 38.2311 6.1994 38.3693 6.1994C38.5351 6.1994 38.6733 6.1994 38.8392 6.1994C39.1984 6.25468 39.4472 6.30994 39.613 6.42048L39.5301 6.97324C39.3643 6.80742 39.1155 6.69687 38.8115 6.66923C38.7286 6.66923 38.6457 6.66923 38.5628 6.66923C38.4799 6.66923 38.397 6.66922 38.3417 6.7245C38.2588 6.75213 38.2035 6.80741 38.1482 6.83505C38.0929 6.89032 38.0653 6.9456 38.0653 7.02851C38.0653 7.11142 38.0653 7.1667 38.0653 7.22197C38.0653 7.27725 38.1206 7.33254 38.1759 7.38781C38.2311 7.44308 38.314 7.49835 38.3693 7.55363C38.4522 7.6089 38.5628 7.66418 38.6457 7.74709C38.7562 7.83 38.8668 7.9129 38.9497 7.99581C39.0326 8.07873 39.1432 8.16165 39.1984 8.24456C39.2814 8.32747 39.309 8.43802 39.3643 8.54857C39.3919 8.65912 39.4195 8.76967 39.3919 8.90785C39.3919 9.07368 39.309 9.21187 39.2261 9.32242C39.1432 9.43297 39.0326 9.51589 38.8944 9.57116C38.7562 9.62644 38.6181 9.65406 38.4522 9.6817C38.2864 9.6817 38.1206 9.6817 37.9548 9.6817C37.8995 9.6817 37.8166 9.68171 37.7337 9.65407C37.6507 9.65407 37.5678 9.5988 37.4849 9.57116C37.402 9.57116 37.3191 9.51587 37.2362 9.48823C37.1533 9.4606 37.098 9.40532 37.0427 9.37768" fill="white"/>
<path d="M42.4044 7.47065L41.437 7.24955L40.7738 10.1515L40.221 10.0409L40.8567 7.13899L39.917 6.91789L39.9999 6.44806L42.5149 7.00082L42.4044 7.47065Z" fill="white"/>
<path d="M43.786 11.0635L41.9343 10.4555L43.0122 7.16663L44.781 7.74701L44.6428 8.21684L43.3991 7.80227L43.0951 8.74196L44.2282 9.10123L44.09 9.57109L42.9569 9.18414L42.6253 10.1791L43.9242 10.5937L43.786 11.0635Z" fill="white"/>
<path d="M46.4671 12.2243L45.8591 11.9479L45.7209 10.87C45.7209 10.87 45.7209 10.6766 45.6656 10.6213C45.6656 10.5384 45.6103 10.4831 45.5827 10.4278C45.5551 10.3726 45.5274 10.3173 45.4722 10.2896C45.4169 10.262 45.3616 10.2067 45.3063 10.1791L45.0852 10.0962L44.5048 11.3951L43.9797 11.174L45.3616 8.02338L46.4118 8.49321C46.55 8.54848 46.6882 8.6314 46.7987 8.74195C46.9093 8.82487 46.9922 8.93542 47.0475 9.04597C47.1028 9.15652 47.1304 9.26706 47.158 9.40525C47.158 9.54343 47.158 9.68162 47.0751 9.81981C47.0198 9.93036 46.9646 10.0409 46.8817 10.0962C46.7987 10.1791 46.7158 10.2344 46.6329 10.2896C46.55 10.3449 46.4395 10.3725 46.3289 10.3725C46.2184 10.3725 46.1078 10.3725 45.9973 10.3725C45.9973 10.3725 46.0802 10.4831 46.1078 10.566C46.1078 10.6213 46.1631 10.6766 46.1907 10.7318C46.1907 10.7871 46.2184 10.8424 46.246 10.9253C46.246 11.0082 46.2736 11.0635 46.3013 11.174L46.4671 12.3072V12.2243ZM45.7485 8.6314L45.3063 9.65399L45.7485 9.84745C45.7485 9.84745 45.9144 9.90272 45.9973 9.90272C46.0802 9.90272 46.1631 9.90271 46.2184 9.87508C46.3013 9.84744 46.3566 9.81982 46.4118 9.76454C46.4671 9.70927 46.5224 9.62635 46.55 9.54344C46.6053 9.40525 46.6329 9.23943 46.55 9.12888C46.4947 8.99069 46.3842 8.90778 46.1907 8.82486L45.7485 8.6314Z" fill="white"/>
<path d="M48.2357 13.2469L46.5498 12.3072L48.2357 9.29474L49.8663 10.2068L49.6176 10.6213L48.5121 9.98567L48.0146 10.8424L49.0648 11.4228L48.8161 11.865L47.7935 11.257L47.2684 12.169L48.4568 12.8323L48.2357 13.2469Z" fill="white"/>
<path d="M48.4847 13.385L50.5022 10.5936L51.3037 11.174C52.3263 11.9202 52.5197 12.7493 51.8564 13.6614C51.5524 14.1036 51.1379 14.3247 50.668 14.4076C50.1982 14.4629 49.7284 14.3247 49.2309 13.9654L48.457 13.4127L48.4847 13.385ZM50.6957 11.3122L49.2309 13.3297L49.5902 13.6061C49.9218 13.8548 50.2258 13.9378 50.5575 13.8825C50.8615 13.8272 51.1379 13.6337 51.3866 13.3297C51.8564 12.6664 51.7459 12.1137 51.0826 11.6162L50.6957 11.3398V11.3122Z" fill="white"/>
<path d="M55.3388 15.2921L54.4268 14.3801L53.7082 15.1263L54.565 15.9554L54.2057 16.3147L53.349 15.4856L52.354 16.5081L51.9395 16.1212L54.3439 13.6339L55.6981 14.9328L55.3388 15.2921Z" fill="white"/>
<path d="M55.1451 19.6034L54.7306 19.1336L55.2004 18.3321L54.316 17.2818L53.4592 17.6135L53.0447 17.1437L56.527 15.9L56.9415 16.3974L55.1175 19.6034H55.1451ZM55.4768 17.8899L56.223 16.6462C56.223 16.6462 56.3059 16.5356 56.3612 16.4804C56.3612 16.4804 56.223 16.5633 56.1677 16.5633L54.8135 17.0884L55.5044 17.8899H55.4768Z" fill="white"/>
<path d="M56.6098 21.621C56.3611 21.4828 56.1124 21.2617 55.8913 20.9301C55.6149 20.5155 55.532 20.1009 55.6149 19.6587C55.6978 19.2165 55.9742 18.8849 56.3887 18.5809C56.8586 18.2769 57.3008 18.1663 57.7983 18.2492C58.2681 18.3322 58.655 18.6085 58.9314 19.0507C59.1248 19.3271 59.2354 19.5758 59.263 19.8246L58.7932 20.1286C58.7932 19.8522 58.6826 19.6035 58.5445 19.3824C58.351 19.0784 58.0746 18.8849 57.743 18.8296C57.4113 18.7744 57.0797 18.8296 56.748 19.0784C56.4164 19.2995 56.2229 19.5482 56.1676 19.8522C56.0847 20.1562 56.1677 20.4602 56.3611 20.7642C56.5546 21.0406 56.748 21.2341 57.0244 21.3446L56.5822 21.6486L56.6098 21.621Z" fill="white"/>
<path d="M59.6581 20.354L56.6404 22.0357L56.9229 22.5427L59.9406 20.861L59.6581 20.354Z" fill="white"/>
<path d="M58.0747 24.8546L57.2732 23.141L60.3962 21.6486L60.6173 22.1737L57.9365 23.4451L58.5169 24.6611L58.0747 24.8546Z" fill="white"/>
<path d="M58.3512 25.6561L58.1577 25.1033L61.3636 23.832L61.5847 24.3848L58.3512 25.6561Z" fill="white"/>
<path d="M62.0823 27.48L61.7783 26.5403L58.9593 27.3971L58.7935 26.8444L61.6125 25.9876L61.3361 25.0479L61.8059 24.8821L62.5521 27.3418L62.0823 27.48Z" fill="white"/>
<path d="M63.16 30.2991L60.7832 29.6081L59.5395 29.8569L59.429 29.3041L60.645 29.0554L62.6073 27.5353L62.7454 28.171L61.4188 29.1383C61.4188 29.1383 61.3359 29.1936 61.2254 29.2488C61.2254 29.2488 61.3359 29.2489 61.4465 29.3041L63.0218 29.7187L63.1324 30.3267L63.16 30.2991Z" fill="white"/>
<path d="M58.9314 41.8238L59.0419 41.2711L61.2253 41.7685C61.4188 41.7962 61.6122 41.8791 61.861 41.962C61.7228 41.8791 61.6122 41.8238 61.5569 41.7962L59.263 40.2209L59.346 39.8339L62.0821 39.3917C62.0821 39.3917 62.2755 39.3917 62.4413 39.3917C62.4413 39.3917 62.0821 39.3088 61.778 39.2535L59.5947 38.7561L59.7052 38.231L63.077 38.9772L62.9112 39.751L60.4791 40.1379C60.2856 40.1379 60.1474 40.1932 60.0645 40.1932C60.2304 40.3038 60.3409 40.3867 60.4238 40.442L62.469 41.8514L62.3032 42.5977L58.9314 41.8238Z" fill="white"/>
<path d="M57.7708 44.8916L57.9919 44.3112H58.9315L59.429 43.0675L58.7104 42.4871L58.9315 41.9067L61.6953 44.3388L61.4742 44.9468H57.7984L57.7708 44.8916ZM59.429 44.3112L60.8938 44.3665C60.8938 44.3665 61.0043 44.3665 61.1149 44.3941C61.1149 44.3941 60.9767 44.3112 60.9214 44.2559L59.8159 43.3163L59.429 44.3112Z" fill="white"/>
<path d="M57.7152 44.9469L60.783 46.5499L60.3131 47.4343C59.7051 48.5674 58.9313 48.8714 57.9363 48.3463C57.4665 48.0976 57.1625 47.7383 57.0519 47.2684C56.9414 46.7986 56.9966 46.3011 57.273 45.776L57.7152 44.9193V44.9469ZM60.0644 46.8262L57.8534 45.6655L57.6323 46.08C57.4388 46.4393 57.4112 46.771 57.4941 47.075C57.577 47.379 57.8258 47.6277 58.1574 47.8212C58.876 48.2081 59.4287 48.0147 59.8157 47.2684L60.0368 46.8539L60.0644 46.8262Z" fill="white"/>
<path d="M55.0898 49.3689L56.1953 47.7659L59.042 49.6729L58.0194 51.2206L57.6048 50.9442L58.3234 49.894L57.5219 49.3413L56.8586 50.3362L56.4441 50.0598L57.1074 49.0649L56.2506 48.5121L55.5044 49.6453L55.0898 49.3689Z" fill="white"/>
<path d="M54.0694 50.6142L53.6904 51.0538L56.3072 53.3093L56.6861 52.8697L54.0694 50.6142Z" fill="white"/>
<path d="M51.2207 53.5422L51.6629 53.1L54.6201 53.7909C54.6201 53.7909 54.7583 53.8186 54.8412 53.8739C54.8412 53.8739 54.6754 53.708 54.5096 53.5422L52.9342 51.9116L53.3211 51.5247L55.7256 54.012L55.2558 54.4819L52.3815 53.7909C52.3815 53.7909 52.188 53.7357 52.1327 53.7357C52.1327 53.7357 52.3262 53.9015 52.4644 54.0673L54.0121 55.6703L53.6252 56.0572L51.2483 53.5698L51.2207 53.5422Z" fill="white"/>
<path d="M50.0598 58.0747L51.11 57.3285L50.5296 56.4994L49.5347 57.1627L49.2583 56.7757L50.2256 56.0848L49.4241 54.8964L49.894 54.5648L51.8562 57.4114L50.3362 58.4893L50.0598 58.0747Z" fill="white"/>
<path d="M48.0976 55.836L49.7559 58.8761L48.8715 59.3459C47.766 59.954 46.9368 59.7605 46.3841 58.7932C46.1354 58.3234 46.0801 57.8535 46.2459 57.4113C46.4117 56.9691 46.7434 56.5822 47.2685 56.3058L48.0976 55.836ZM49.0096 58.7103L47.8212 56.5269L47.4067 56.748C47.0474 56.9415 46.8263 57.1902 46.7434 57.4942C46.6605 57.7982 46.7157 58.1299 46.9092 58.4892C47.2961 59.2078 47.8489 59.3459 48.5951 58.959L49.0096 58.7379V58.7103Z" fill="white"/>
<path d="M42.7635 58.3235L43.3439 58.1024L43.9519 58.7933L45.2232 58.2959L45.1679 57.3838L45.7483 57.1627L45.8312 60.8385L45.2232 61.0872L42.7358 58.3511L42.7635 58.3235ZM44.2835 59.1803L45.2508 60.2858C45.2508 60.2858 45.3338 60.3963 45.3614 60.4792C45.3614 60.4792 45.3337 60.3134 45.3337 60.2581L45.2508 58.7933L44.2559 59.1803H44.2835Z" fill="white"/>
<path d="M38.8665 59.2355L39.5298 59.0973L40.276 59.8711C40.276 59.8711 40.4142 60.0093 40.4695 60.0646C40.5247 60.1199 40.58 60.1475 40.6353 60.1752C40.6906 60.1752 40.7458 60.2304 40.8011 60.2304C40.8564 60.2304 40.9393 60.2304 40.9946 60.2304L41.2157 60.1752L40.9117 58.7933L41.4644 58.6827L42.2106 62.0545L41.1051 62.3032C40.9393 62.3309 40.8011 62.3585 40.6629 62.3309C40.5247 62.3309 40.3866 62.3032 40.276 62.248C40.1655 62.1927 40.0549 62.1098 39.972 62.0269C39.8891 61.9163 39.8338 61.8058 39.8062 61.6399C39.8062 61.5294 39.7785 61.4188 39.8062 61.3083C39.8062 61.1977 39.8615 61.0872 39.8891 61.0043C39.9444 60.9214 39.9996 60.8385 40.0826 60.7555C40.1655 60.6726 40.2484 60.6174 40.3589 60.5621C40.3589 60.5621 40.2207 60.5068 40.1655 60.4792C40.1102 60.4515 40.0549 60.4239 39.9996 60.3686C39.9444 60.3133 39.8891 60.2857 39.8338 60.2581C39.7785 60.2028 39.7233 60.1475 39.6404 60.0923L38.8389 59.2631L38.8665 59.2355ZM41.5473 61.6952L41.2986 60.5897L40.8288 60.7003C40.8288 60.7003 40.6629 60.7555 40.6077 60.7832C40.5247 60.8108 40.4971 60.8661 40.4418 60.949C40.4142 61.0043 40.3589 61.0872 40.3589 61.1701C40.3589 61.253 40.3589 61.3359 40.3589 61.4188C40.3866 61.5847 40.4695 61.6952 40.6077 61.7505C40.7182 61.8334 40.884 61.8334 41.0775 61.7781L41.5473 61.6676V61.6952Z" fill="white"/>
<path d="M36.8491 59.4566L38.7837 59.2355L39.1983 62.6626L37.3466 62.8837L37.2913 62.3862L38.5626 62.248L38.4521 61.2531L37.2637 61.4189L37.2084 60.9214L38.3968 60.7832L38.2586 59.7607L36.9044 59.9265L36.8491 59.4566Z" fill="white"/>
<path d="M33.8367 59.7329C34.196 59.5394 34.5829 59.4289 35.0251 59.4289C35.5502 59.4289 35.9371 59.5671 36.2688 59.8987C36.6004 60.2028 36.7386 60.6449 36.7662 61.1424C36.7662 61.6675 36.6004 62.1097 36.2688 62.469C35.9371 62.8283 35.4949 62.9941 34.9698 62.9941C34.5829 62.9941 34.2512 62.9389 34.0025 62.8283V62.2479C34.2512 62.4137 34.5829 62.4966 34.9422 62.4966C35.3014 62.4966 35.6055 62.3585 35.8542 62.1374C36.0753 61.8886 36.2135 61.5846 36.1858 61.1977C36.1858 60.8108 36.0753 60.4791 35.8818 60.258C35.6884 60.0369 35.412 59.9264 35.0527 59.9264C34.804 59.9264 34.6105 59.9817 34.4447 60.0646V60.8937H35.1909V61.3635H33.8919V59.7329H33.8367Z" fill="white"/>
<path d="M32.8129 59.4211L32.5623 62.8666L33.1411 62.9087L33.3917 59.4632L32.8129 59.4211Z" fill="white"/>
<path d="M32.3168 59.5118L32.2339 60.0922C32.2339 60.0922 32.1233 59.9816 32.0681 59.9264C32.0128 59.8711 31.9299 59.8435 31.847 59.7882C31.7641 59.7606 31.6811 59.7053 31.6259 59.6776C31.543 59.6776 31.4877 59.6224 31.4048 59.6224C31.156 59.5947 30.9902 59.6224 30.852 59.6776C30.7138 59.7329 30.6586 59.8435 30.6309 60.0093C30.6309 60.0922 30.6309 60.1751 30.6309 60.2304C30.6586 60.2857 30.7138 60.3686 30.7691 60.4238C30.8244 60.4791 30.9073 60.5344 30.9902 60.5897C31.0731 60.645 31.1837 60.7002 31.2666 60.7831C31.3771 60.8661 31.46 60.949 31.5706 61.0319C31.6535 61.1148 31.7364 61.1977 31.7917 61.2806C31.847 61.3635 31.9022 61.4741 31.9299 61.557C31.9299 61.6675 31.9575 61.7781 31.9299 61.9163C31.9299 62.0821 31.847 62.2203 31.7641 62.3032C31.6811 62.4137 31.5706 62.4967 31.4324 62.5519C31.2942 62.6072 31.156 62.6348 31.0179 62.6625C30.852 62.6625 30.7138 62.6625 30.548 62.6625C30.1887 62.6072 29.94 62.5243 29.7742 62.4137L29.8571 61.861C30.0229 62.0268 30.2716 62.1374 30.5757 62.1926C30.6586 62.1926 30.7415 62.1926 30.8244 62.1926C30.9073 62.1926 30.9902 62.1926 31.0731 62.1374C31.156 62.1374 31.2113 62.0821 31.2666 62.0268C31.3219 61.9715 31.3495 61.9163 31.3495 61.8334C31.3495 61.7504 31.3495 61.6952 31.3495 61.6399C31.3495 61.5846 31.2942 61.5294 31.239 61.4741C31.1837 61.4188 31.1284 61.3635 31.0455 61.3082C30.9626 61.253 30.8797 61.1977 30.7691 61.1148C30.6586 61.0319 30.548 60.949 30.4651 60.8661C30.3822 60.7831 30.2993 60.7002 30.2164 60.5897C30.1335 60.5068 30.1058 60.3962 30.0782 60.2857C30.0505 60.1751 30.0505 60.0646 30.0782 59.9264C30.0782 59.7605 30.1611 59.6224 30.244 59.5118C30.3269 59.4013 30.4375 59.3184 30.5757 59.2631C30.7138 59.2078 30.852 59.1802 31.0179 59.1525C31.1837 59.1525 31.3495 59.1525 31.5153 59.1525C31.5706 59.1525 31.6535 59.1525 31.7088 59.2078C31.7917 59.2078 31.8746 59.2631 31.9575 59.2907C32.0404 59.2907 32.1233 59.346 32.2063 59.3736C32.2892 59.4013 32.3444 59.4565 32.3721 59.4842" fill="white"/>
<path d="M26.955 61.3359L27.9223 61.5847L28.6409 58.6827L29.1937 58.8209L28.4751 61.6952L29.4424 61.944L29.3318 62.4138L26.8445 61.8058L26.955 61.3359Z" fill="white"/>
<path d="M25.6562 57.7429L27.4803 58.3786L26.3195 61.6398L24.5784 61.0041L24.7442 60.5619L25.9602 60.9765L26.2643 60.0645L25.1588 59.6775L25.3246 59.2077L26.4301 59.5946L26.7617 58.6273L25.4904 58.1851L25.6562 57.7429Z" fill="white"/>
<path d="M22.9477 56.4717L23.5557 56.7481L23.6662 57.826C23.6662 57.826 23.6662 58.0194 23.6939 58.0747C23.6939 58.1576 23.7215 58.2129 23.7768 58.2681C23.7768 58.3234 23.8321 58.3787 23.8873 58.4063C23.9426 58.434 23.9979 58.4893 24.0532 58.5169L24.2466 58.6274L24.8547 57.3561L25.3798 57.6049L23.915 60.7279L22.8924 60.258C22.7542 60.2028 22.616 60.1199 22.5055 60.0093C22.3949 59.9264 22.312 59.8159 22.2567 59.7053C22.2015 59.5948 22.1738 59.4566 22.1738 59.346C22.1738 59.2078 22.2015 59.0696 22.2567 58.9314C22.312 58.8209 22.3673 58.738 22.4502 58.6551C22.5331 58.5722 22.616 58.5169 22.6989 58.4616C22.7819 58.4063 22.8924 58.3787 23.003 58.3787C23.1135 58.3787 23.224 58.3787 23.3346 58.3787C23.3346 58.3787 23.2517 58.2405 23.2517 58.1852C23.2517 58.13 23.1964 58.0747 23.1964 58.0194C23.1964 57.9641 23.1688 57.9089 23.1411 57.826C23.1411 57.7707 23.1411 57.6878 23.1135 57.5772L22.9753 56.4441L22.9477 56.4717ZM23.5833 60.0646L24.0532 59.042L23.611 58.8485C23.611 58.8485 23.4451 58.7933 23.3622 58.7933C23.2793 58.7933 23.1964 58.7933 23.1411 58.7933C23.0582 58.7933 23.0029 58.8485 22.9477 58.9038C22.8924 58.9591 22.8371 59.0144 22.8095 59.0973C22.7266 59.2355 22.7266 59.3737 22.8095 59.5118C22.8648 59.65 22.9753 59.7329 23.1688 59.8435L23.611 60.0369L23.5833 60.0646Z" fill="white"/>
<path d="M21.234 55.4215L22.8922 56.4165L21.1234 59.4013L19.5481 58.434L19.7692 58.0194L20.9023 58.6827L21.3998 57.8536L20.3772 57.2456L20.626 56.831L21.6485 57.439L22.1736 56.5547L20.9852 55.8637L21.234 55.4215Z" fill="white"/>
<path d="M20.9852 55.2833L18.9124 58.0471L18.1109 57.4391C17.0884 56.6652 16.9225 55.8361 17.6135 54.9517C17.9451 54.5372 18.332 54.2884 18.8019 54.2331C19.2717 54.1779 19.7415 54.3437 20.239 54.703L21.0129 55.2833H20.9852ZM18.7466 57.3009L20.239 55.311L19.8797 55.0346C19.5481 54.7859 19.2441 54.703 18.9401 54.7306C18.636 54.7582 18.3597 54.9517 18.1109 55.2833C17.6135 55.919 17.724 56.4994 18.3873 56.9969L18.7742 57.2732L18.7466 57.3009Z" fill="white"/>
<path d="M14.1867 53.2382L15.0711 54.1779L15.8173 53.4593L14.9882 52.6026L15.3474 52.2433L16.1766 53.1L17.1992 52.1051L17.6137 52.5196L15.1264 54.9241L13.8274 53.5699L14.1867 53.2382Z" fill="white"/>
<path d="M14.4905 48.9543L14.8774 49.4518L14.3799 50.2533L15.2367 51.3035L16.1211 50.9719L16.508 51.4693L12.9981 52.6301L12.5835 52.1326L14.4628 48.9543H14.4905ZM14.1312 50.6402L13.3573 51.8839C13.3573 51.8839 13.2744 51.9668 13.2192 52.0497C13.2192 52.0497 13.3573 51.9668 13.4126 51.9668L14.7668 51.4693L14.1036 50.6402H14.1312Z" fill="white"/>
<path d="M13.0257 46.8816C13.2744 47.0198 13.4955 47.2685 13.7166 47.6001C13.993 48.0147 14.0759 48.4569 13.9653 48.8715C13.8548 49.286 13.5784 49.6453 13.1638 49.9217C12.694 50.2257 12.2242 50.3086 11.7543 50.2257C11.2845 50.1152 10.9252 49.8388 10.6212 49.3966C10.4277 49.1202 10.3448 48.8438 10.2896 48.6227L10.7594 48.3187C10.7594 48.5951 10.8423 48.8438 11.0081 49.0926C11.2016 49.3966 11.478 49.59 11.8096 49.673C12.1413 49.7282 12.4729 49.6729 12.8046 49.4518C13.1086 49.2584 13.3297 48.982 13.3849 48.678C13.4678 48.374 13.3849 48.07 13.2191 47.766C13.0533 47.4896 12.8322 47.2961 12.5558 47.1856L12.998 46.9092L13.0257 46.8816Z" fill="white"/>
<path d="M12.7218 45.942L12.9981 46.4671L9.95801 48.07L9.68164 47.5726L12.7218 45.942Z" fill="white"/>
<path d="M11.6441 43.6204L12.4179 45.3615L9.26724 46.771L9.04614 46.2459L11.7546 45.0299L11.2019 43.8138L11.6441 43.6204Z" fill="white"/>
<path d="M11.3674 42.8189L11.5885 43.3716L8.32725 44.5601L8.13379 44.0073L11.3674 42.8189Z" fill="white"/>
<path d="M7.69176 40.8843L7.96813 41.824L10.8148 41.0225L10.9806 41.5753L8.10632 42.3768L8.38269 43.3441L7.91286 43.4823L7.22192 41.0225L7.69176 40.8843Z" fill="white"/>
<path d="M6.69678 38.0652L9.07359 38.8114L10.3173 38.5903L10.4002 39.143L9.18414 39.3641L7.19425 40.8289L7.0837 40.1933L8.43793 39.2812C8.43793 39.2812 8.52084 39.226 8.63139 39.1707C8.63139 39.1707 8.49321 39.1707 8.41029 39.1154L6.83496 38.6732L6.72441 38.0652H6.69678Z" fill="white"/>
<path d="M34.8594 68.715C30.2439 68.715 25.7667 67.803 21.5381 66.0342C17.4755 64.3207 13.7997 61.8333 10.649 58.7103C7.49836 55.5597 5.03863 51.9115 3.32511 47.8212C1.52868 43.5927 0.644287 39.1154 0.644287 34.5C0.644287 29.8845 1.55632 25.4073 3.32511 21.1788C5.03863 17.1161 7.52599 13.4403 10.649 10.2896C13.7997 7.13897 17.4478 4.67924 21.5381 2.96572C25.7667 1.19693 30.2439 0.284912 34.8594 0.284912C39.4748 0.284912 43.9521 1.19693 48.1806 2.96572C60.2581 8.18918 64.6801 17.1161 66.3936 21.1788C68.19 25.4073 69.0744 29.8845 69.0744 34.5C69.0744 39.1154 68.1624 43.5927 66.3936 47.8212C64.6801 51.9115 62.1927 55.5597 59.0697 58.7103C55.919 61.861 52.2709 64.3207 48.1806 66.0342C43.9521 67.8306 39.4748 68.715 34.8594 68.715ZM34.8594 1.08638C16.4529 1.08638 1.47341 16.0658 1.47341 34.4723C1.47341 52.8788 16.4529 67.8583 34.8594 67.8583C53.2659 67.8583 68.2453 52.8788 68.2453 34.4723C68.2453 16.0658 53.2659 1.08638 34.8594 1.08638Z" fill="white"/>
<path d="M34.887 54.4541C31.1283 54.4541 27.4526 53.4039 24.3019 51.414C21.2342 49.4793 18.7191 46.7432 17.0885 43.5097C16.9504 43.2333 17.0609 42.874 17.3373 42.7358C17.6137 42.5976 17.9729 42.7082 18.1111 42.9846C21.3447 49.3411 27.7566 53.2933 34.887 53.2933C42.0175 53.2933 48.3741 49.3688 51.6076 43.0675C51.7458 42.7911 52.1051 42.6529 52.3815 42.8187C52.6578 42.9569 52.796 43.3162 52.6302 43.5926C50.972 46.7985 48.4846 49.5346 45.4169 51.4416C42.2662 53.4038 38.6181 54.4541 34.8594 54.4541" fill="white"/>
<path d="M51.7455 25.6283C51.5521 25.6283 51.331 25.5178 51.2481 25.3243C47.9316 19.3823 41.6302 15.7065 34.8314 15.7065C28.0327 15.7065 21.8142 19.3546 18.4701 25.2137C18.3043 25.4901 17.945 25.6007 17.6686 25.4348C17.3923 25.269 17.2817 24.9097 17.4475 24.6334C19.1611 21.6209 21.6484 19.0782 24.6333 17.3094C27.701 15.4854 31.211 14.5181 34.8038 14.5181C38.3967 14.5181 41.9619 15.4854 45.0296 17.3371C48.0145 19.1335 50.5018 21.6762 52.2154 24.7439C52.3812 25.0203 52.2706 25.3796 51.9943 25.5454C51.9114 25.6007 51.8008 25.6283 51.7179 25.6283" fill="white"/>
<path d="M62.4691 34.0026C62.4691 34.5 62.0545 34.9146 61.5571 34.9146C61.0596 34.9146 60.645 34.5 60.645 34.0026C60.645 33.5051 61.0596 33.0905 61.5571 33.0905C62.0545 33.0905 62.4691 33.5051 62.4691 34.0026Z" fill="white"/>
<path d="M8.63144 34.7763C8.63144 35.2738 8.21688 35.6883 7.71941 35.6883C7.22193 35.6883 6.80737 35.2738 6.80737 34.7763C6.80737 34.2788 7.22193 33.8643 7.71941 33.8643C8.21688 33.8643 8.63144 34.2788 8.63144 34.7763Z" fill="white"/>
<path d="M25.1587 26.5681C25.3798 26.5681 25.5456 26.7339 25.5456 26.9274V29.3318C25.5456 29.5529 25.3798 29.7187 25.1587 29.7187H19.0232V32.1785H22.5884C22.8095 32.1785 23.003 32.3443 23.003 32.5378V34.9422C23.003 35.1633 22.8371 35.3015 22.5884 35.3015H19.0232V40.6079C19.0232 40.829 18.8297 40.9672 18.6363 40.9672H16.6187C16.0107 40.9672 15.6238 40.6079 15.6238 39.9998V26.8721C15.6238 26.6786 15.762 26.5128 16.0107 26.5128H25.1587V26.5681Z" fill="white"/>
<path d="M32.7588 26.5681C33.9749 26.5681 35.0804 26.7616 36.1029 27.2038C37.1255 27.6183 37.9546 28.1987 38.6179 28.8896C39.9169 30.2715 40.6631 32.0403 40.6631 33.7538C40.6631 35.0528 40.3591 36.2412 39.7511 37.319C39.1431 38.4245 38.231 39.2813 37.015 39.9722C35.7989 40.6632 34.3618 40.9948 32.7588 40.9948H27.7012C27.4801 40.9948 27.2866 40.829 27.2866 40.6079V26.8997C27.2866 26.7063 27.4524 26.5405 27.6735 26.5405H32.7588V26.5681ZM30.686 37.8441H32.7588C34.1131 37.8441 35.1633 37.4296 35.9095 36.5728C36.6833 35.7437 37.0426 34.7764 37.015 33.6709C37.015 32.593 36.6281 31.6534 35.8818 30.8795C35.1356 30.1057 34.0854 29.7187 32.7312 29.7187H30.6584V37.8441H30.686Z" fill="white"/>
<path d="M57.0521 40.5802C57.1903 40.8289 57.0521 40.9947 56.7758 40.9947H53.9015C53.708 40.9947 53.5698 40.9118 53.4869 40.746L52.7131 39.1707H46.1077L45.3339 40.746C45.251 40.9118 45.1128 40.9947 44.9193 40.9947H42.0451C41.7963 40.9947 41.6858 40.8289 41.7687 40.5802L49.0097 26.6509C49.0097 26.6509 49.1755 26.4851 49.286 26.4851H49.4519C49.4519 26.4851 49.673 26.5404 49.7559 26.6509L56.9692 40.5802H57.0521ZM51.3312 36.324L49.4519 32.5101L47.5725 36.324H51.3312Z" fill="white"/>
</svg>
