<svg width="69" height="69" viewBox="0 0 69 69" fill="none" xmlns="http://www.w3.org/2000/svg">
<path d="M34.4056 68.8395C34.1845 68.8395 33.9634 68.8395 33.7423 68.8395C15.5293 68.5078 0.411646 53.3902 0.0799977 35.1495C-0.0858266 25.7251 3.4794 16.8812 10.1124 10.2206C16.6072 3.7258 25.2024 0.160583 34.378 0.160583C34.5991 0.160583 34.8202 0.160583 35.0413 0.160583C53.2543 0.492232 68.372 15.6099 68.7036 33.8229C68.8694 43.2473 65.3042 52.0912 58.6436 58.7518C52.1488 65.2466 43.5536 68.8118 34.378 68.8118M34.378 1.2108C25.4787 1.2108 17.1599 4.66546 10.8586 10.9668C4.41907 17.4063 0.964394 26.0015 1.13022 35.1219C1.46187 52.7822 16.082 67.43 33.7423 67.7616C42.8903 67.9274 51.4579 64.4728 57.8974 58.0333C64.3369 51.5938 67.7916 42.9985 67.6258 33.8782C67.2941 16.2179 52.6739 1.57009 35.0136 1.23844C34.7925 1.23844 34.5991 1.23844 34.378 1.23844" fill="white"/>
<path d="M34.4058 56.6791C34.2676 56.6791 34.1294 56.6791 33.9912 56.6791C22.2177 56.458 12.4893 46.702 12.2682 34.9561C12.1577 28.8759 14.4516 23.1549 18.763 18.8711C22.9639 14.6702 28.519 12.3763 34.4334 12.3763C34.5716 12.3763 34.7098 12.3763 34.848 12.3763C46.6215 12.5974 56.3498 22.3534 56.5709 34.0993C56.6815 40.1795 54.3876 45.9005 50.0762 50.1843C45.8753 54.3852 40.3202 56.6791 34.4058 56.6791ZM34.4058 13.0673C28.6848 13.0673 23.2955 15.2783 19.2328 19.341C15.0872 23.5142 12.8486 29.0417 12.9592 34.9008C13.1803 46.2874 22.6046 55.7394 33.9912 55.9329C39.9056 56.071 45.4054 53.8048 49.551 49.6592C53.6967 45.5135 55.9353 39.9584 55.8247 34.0717C55.6036 22.6851 46.1793 13.2331 34.7927 13.0396C34.6545 13.0396 34.5163 13.0396 34.3781 13.0396" fill="white"/>
<path d="M9.39375 24.1499C9.75304 24.2605 10.0294 24.3987 10.2229 24.5368C10.4163 24.675 10.5822 24.8685 10.7203 25.1172C10.9967 25.6423 11.0244 26.1951 10.8309 26.7755C10.6374 27.3282 10.3334 27.7151 9.83595 27.9639C9.5043 28.1297 9.20029 28.185 8.89628 28.1573C8.59227 28.1297 8.12243 27.9915 7.51441 27.798C6.87875 27.6046 6.43655 27.4111 6.18782 27.2729C5.91144 27.1071 5.71798 26.886 5.55216 26.5544C5.30342 26.0845 5.27578 25.5594 5.46924 25.0067C5.63507 24.4816 5.93908 24.0946 6.35364 23.8459C6.7682 23.6248 7.23804 23.5419 7.73551 23.6248L7.45914 24.4263C7.15512 24.3986 6.87875 24.4263 6.65765 24.5921C6.43655 24.7303 6.27073 24.9514 6.18782 25.2278C6.07727 25.5318 6.1049 25.8358 6.24309 26.1122C6.326 26.278 6.49183 26.4162 6.68529 26.5544C6.87875 26.6649 7.23804 26.8031 7.79078 26.9689C8.31589 27.1347 8.70282 27.2453 8.92392 27.2729C9.14502 27.3006 9.36612 27.2729 9.53194 27.19C9.80831 27.0518 10.0018 26.8307 10.1123 26.4991C10.2229 26.1398 10.1952 25.8082 10.0294 25.5041C9.89122 25.2554 9.64249 25.0896 9.2832 24.979L8.97919 24.8685L8.61991 26.0016L7.92897 25.7805L8.56463 23.8459L9.36611 24.1223L9.39375 24.1499Z" fill="white"/>
<path d="M11.5497 20.3359C11.8813 20.5018 12.1301 20.6952 12.2959 20.861C12.4893 21.0269 12.5999 21.248 12.6828 21.4967C12.821 21.9113 12.7657 22.3258 12.5446 22.768C12.3235 23.1826 11.9919 23.459 11.5773 23.5695C11.3286 23.6248 11.0798 23.6524 10.8311 23.5695C10.5824 23.5142 10.306 23.4037 9.97434 23.2379C9.67033 23.072 9.42159 22.8786 9.22813 22.7127C9.03467 22.5469 8.92412 22.3258 8.84121 22.0771C8.70302 21.6625 8.7583 21.248 8.97939 20.8334C9.20049 20.3912 9.53214 20.1425 9.9467 20.0043C10.1954 19.949 10.4442 19.9214 10.6929 20.0043C10.9416 20.0596 11.218 20.1701 11.5497 20.3359ZM11.1627 21.0269C10.6929 20.7781 10.3336 20.6676 10.0849 20.7505C9.89143 20.8058 9.7256 20.944 9.61505 21.1651C9.5045 21.3585 9.47687 21.5796 9.53214 21.7731C9.61505 22.0218 9.89143 22.2705 10.3613 22.5193C10.8311 22.768 11.1904 22.8786 11.4391 22.7957C11.6602 22.7404 11.7984 22.6022 11.909 22.4088C12.0195 22.2153 12.0471 21.9942 11.9919 21.7731C11.909 21.5243 11.6326 21.2756 11.1627 21.0269Z" fill="white"/>
<path d="M14.0645 16.9366C14.3685 17.1577 14.5619 17.3788 14.7278 17.5723C14.866 17.7658 14.9765 18.0145 15.0041 18.2632C15.0594 18.6778 14.9489 19.0923 14.6725 19.4793C14.3685 19.8662 14.0092 20.0873 13.5946 20.1426C13.3459 20.1426 13.0972 20.1426 12.8484 20.032C12.6273 19.9491 12.351 19.7833 12.0746 19.5622C11.7982 19.3411 11.5771 19.1476 11.4113 18.9265C11.2455 18.7331 11.1625 18.4843 11.1349 18.2356C11.0796 17.821 11.1902 17.4065 11.4666 17.0195C11.7706 16.6326 12.1299 16.4115 12.5444 16.3563C12.7932 16.3286 13.0419 16.3562 13.2906 16.4392C13.5394 16.5497 13.7881 16.6879 14.0645 16.909M13.5946 17.5447C13.1524 17.213 12.8208 17.0748 12.5721 17.1025C12.351 17.1301 12.1851 17.2406 12.0469 17.4341C11.9088 17.6276 11.8535 17.821 11.8811 18.0421C11.9088 18.2909 12.1575 18.5949 12.5721 18.9265C13.0143 19.2582 13.3459 19.3964 13.5946 19.3687C13.8157 19.3687 13.9816 19.2305 14.1197 19.0647C14.2579 18.8712 14.3132 18.6778 14.2856 18.4567C14.2579 18.208 14.0092 17.904 13.5946 17.5723" fill="white"/>
<path d="M18.4036 15.4165L17.8508 15.9416L17.5745 15.6376C17.5745 16.0521 17.4639 16.3838 17.1323 16.6878C16.8282 16.9642 16.5242 17.1023 16.1926 17.1023C15.778 17.1023 15.2806 16.7984 14.7278 16.1903C14.1751 15.6099 13.8987 15.0848 13.8987 14.6703C13.8987 14.3386 14.0645 14.0346 14.3409 13.7582C14.6725 13.4542 15.0042 13.316 15.3911 13.3713L14.0092 11.9342L14.5896 11.3814L18.4036 15.4165ZM16.8006 14.919C16.8006 14.919 16.6071 14.6703 16.469 14.5321C16.3308 14.3939 16.2202 14.2833 16.1097 14.1728C15.9991 14.0899 15.8886 14.007 15.7504 13.9517C15.6122 13.8964 15.5016 13.8688 15.3635 13.9241C15.2253 13.9793 15.1147 14.0346 14.9765 14.1451C14.8384 14.2557 14.7554 14.3939 14.7278 14.5321C14.7002 14.6703 14.7002 14.7808 14.7278 14.919C14.7831 15.0572 14.8384 15.1677 14.9213 15.2783C15.0042 15.3888 15.1147 15.527 15.2529 15.6652C15.3911 15.8034 15.5016 15.9139 15.6122 16.0245C15.7227 16.1074 15.8333 16.1903 15.9715 16.2456C16.1097 16.3009 16.2202 16.3285 16.3584 16.2732C16.4966 16.2456 16.6071 16.1627 16.7453 16.0521C16.8559 15.9416 16.9388 15.8034 16.9941 15.6929C17.0217 15.5547 16.9941 15.4441 16.9941 15.3059C16.9388 15.1677 16.8835 15.0572 16.8006 14.9466" fill="white"/>
<path d="M24.9535 11.3814L24.2073 11.7683L22.4938 8.50708L22.6044 11.4919L22.0516 11.7683L19.6472 9.9995L21.3883 13.2884L20.6421 13.6753L18.0442 8.75583L18.7904 8.36891L21.8305 10.6628L21.637 6.87648L22.3556 6.48956L24.9535 11.3814Z" fill="white"/>
<path d="M28.7954 10.2484L28.0492 10.4695L27.9386 10.1378C27.8281 10.3313 27.7175 10.4695 27.5794 10.5524C27.4412 10.6629 27.2754 10.7458 27.0266 10.8011C26.5844 10.9393 26.1975 10.9117 25.9211 10.7458C25.6724 10.6077 25.4789 10.3589 25.3684 10.0273C25.2578 9.69562 25.3131 9.39161 25.4789 9.14288C25.6447 8.8665 25.9488 8.67304 26.3633 8.56249L27.3583 8.25848L27.2754 7.98211C27.1924 7.73338 27.0819 7.56754 26.9161 7.51226C26.7502 7.42935 26.5291 7.42935 26.2251 7.51226C26.0317 7.56754 25.8658 7.65045 25.7553 7.73336C25.6447 7.81628 25.5618 7.95446 25.4789 8.12029L24.8433 7.78865C24.9538 7.53991 25.092 7.31881 25.2855 7.18063C25.4513 7.04244 25.7 6.93188 26.0317 6.82133C27.0819 6.51732 27.7175 6.82133 27.9663 7.65046L28.7125 10.1931L28.7954 10.2484ZM27.6346 9.11523L27.5517 8.81122L26.6673 9.05997C26.1975 9.19815 26.0317 9.44688 26.1422 9.80617C26.2528 10.1655 26.5291 10.276 27.0266 10.1378C27.3306 10.0549 27.5241 9.91672 27.6623 9.72326C27.7452 9.58507 27.7452 9.39161 27.6623 9.11523" fill="white"/>
<path d="M32.9131 9.64032L32.1116 9.75088L31.8076 7.37406C31.78 7.07005 31.6694 6.87658 31.5036 6.73839C31.3378 6.6002 31.1443 6.57258 30.8956 6.60022C30.6469 6.62785 30.481 6.7384 30.3428 6.90423C30.2047 7.07005 30.1494 7.29115 30.2047 7.59516L30.5087 9.9996L29.7072 10.1102L29.2097 6.18565L29.9836 6.10274L30.0388 6.48966C30.2599 6.15802 30.5916 5.96456 31.0338 5.90928C31.4207 5.85401 31.78 5.90927 32.0564 6.13036C32.3604 6.35146 32.5262 6.71076 32.5815 7.1806L32.8855 9.69559L32.9131 9.64032Z" fill="white"/>
<path d="M37.0863 9.72313H36.3124V9.28095C36.036 9.55732 35.6768 9.6955 35.2346 9.66787C34.8476 9.66787 34.516 9.52968 34.2672 9.28095C34.0185 9.00457 33.908 8.64528 33.908 8.1478L34.0185 5.63281H34.82L34.7371 8.06489C34.7371 8.34127 34.7924 8.59 34.9305 8.72819C35.0687 8.89401 35.2622 8.97693 35.4833 8.97693C35.732 8.97693 35.9255 8.92166 36.0913 8.78347C36.2571 8.64528 36.34 8.42418 36.34 8.1478L36.4506 5.74334H37.2521L37.0863 9.72313Z" fill="white"/>
<path d="M40.403 6.90413L39.6291 6.76594L39.0488 10.0548L38.2749 9.9166L38.8553 6.62774L38.4131 6.54483L38.5236 5.93681L38.9658 6.01974L39.0488 5.49462C39.104 5.19061 39.2422 4.94187 39.4633 4.77604C39.6844 4.61022 39.9608 4.52731 40.3201 4.61023L40.8175 4.69313L40.707 5.35643L40.3753 5.30116C40.099 5.24589 39.9055 5.38407 39.8502 5.68808L39.7673 6.18556L40.5412 6.32375L40.4306 6.93176L40.403 6.90413Z" fill="white"/>
<path d="M43.1388 11.1604L42.3926 10.9393L42.5031 10.6076C42.3097 10.6906 42.1438 10.7458 41.978 10.7735C41.8122 10.7735 41.6187 10.7735 41.37 10.6906C40.9278 10.5524 40.6238 10.3313 40.458 10.0273C40.3198 9.75089 40.2921 9.44687 40.4027 9.11523C40.5132 8.78358 40.7067 8.56248 40.9831 8.42429C41.2594 8.2861 41.6187 8.2861 42.0333 8.42429L43.0282 8.7283L43.1111 8.45193C43.1941 8.2032 43.1664 8.00973 43.0835 7.84391C43.0006 7.67808 42.8071 7.56754 42.5031 7.48463C42.3097 7.42936 42.1438 7.40171 42.0057 7.42934C41.8675 7.42934 41.7293 7.51225 41.5635 7.6228L41.2042 7.0148C41.4529 6.87661 41.674 6.76605 41.8951 6.76605C42.1162 6.76605 42.3926 6.76605 42.7242 6.8766C43.7468 7.18062 44.1337 7.78864 43.885 8.64539L43.1111 11.1604H43.1388ZM42.8071 9.55743L42.8901 9.25342L42.0057 8.97705C41.5358 8.83886 41.2594 8.9494 41.1489 9.30869C41.0383 9.66797 41.2318 9.91672 41.7016 10.0549C42.0057 10.1378 42.2544 10.1378 42.4479 10.0549C42.586 9.97199 42.6966 9.80617 42.7795 9.55743" fill="white"/>
<path d="M46.8701 12.3211C46.4003 12.5146 45.9305 12.4869 45.4606 12.2658C45.2395 12.1553 45.0737 12.0447 44.9079 11.8789C44.7697 11.7131 44.6315 11.5473 44.5486 11.3262C44.4657 11.1051 44.438 10.8563 44.4657 10.58C44.4657 10.3036 44.5762 9.99958 44.7421 9.66794C44.9079 9.33629 45.0737 9.08753 45.2948 8.89407C45.4883 8.70061 45.7094 8.56242 45.9305 8.50715C46.1516 8.45187 46.3727 8.42425 46.5661 8.45188C46.7872 8.45188 46.9807 8.5348 47.2018 8.64534C47.6716 8.86644 47.9756 9.22572 48.1415 9.69556L47.4229 9.9443C47.3676 9.77848 47.3123 9.64029 47.2294 9.52974C47.1465 9.41919 47.036 9.33629 46.8978 9.28101C46.6214 9.14283 46.345 9.14283 46.0963 9.28101C45.8752 9.39156 45.6541 9.6403 45.4606 10.0549C45.2672 10.4694 45.1843 10.7734 45.2672 11.0222C45.3224 11.2985 45.4883 11.5196 45.7646 11.6578C45.9028 11.7131 46.041 11.7684 46.1516 11.7407C46.2621 11.7407 46.4279 11.7131 46.5938 11.6302L46.8701 12.3487V12.3211Z" fill="white"/>
<path d="M48.6113 14.0623L48.2243 13.8135C47.9203 13.6201 47.7545 13.399 47.7269 13.1226C47.6716 12.8462 47.7269 12.5698 47.9203 12.3211L49.1364 10.4418L48.7494 10.193L49.0811 9.66792L49.468 9.91665L50.076 8.97699L50.7393 9.39153L50.1313 10.3312L50.767 10.7458L50.4353 11.2709L49.7997 10.8563L48.6113 12.708C48.4454 12.9568 48.5007 13.1779 48.7218 13.3437L48.9982 13.5095L48.6389 14.0899L48.6113 14.0623Z" fill="white"/>
<path d="M51.7343 16.5497L51.1262 16.0522L51.375 15.7482C50.9604 15.8035 50.6011 15.6929 50.2971 15.4166C49.9931 15.1678 49.8273 14.8638 49.772 14.5045C49.7444 14.1453 49.8826 13.7583 50.1866 13.399L51.8172 11.4644L52.4252 11.9895L50.8775 13.8412C50.684 14.0623 50.6011 14.2834 50.6288 14.4769C50.6288 14.6704 50.7393 14.8638 50.9328 15.0296C51.1262 15.1678 51.3197 15.2507 51.5408 15.2507C51.7619 15.2507 51.9554 15.1126 52.1488 14.8915L53.6965 13.0397L54.3045 13.5649L51.7619 16.5773L51.7343 16.5497Z" fill="white"/>
<path d="M57.013 17.0195L56.1563 16.9642C56.1563 16.7155 56.101 16.522 55.9628 16.3562C55.8246 16.1904 55.6312 16.1075 55.4101 16.1075C55.189 16.1075 54.9679 16.1904 54.7744 16.3562L52.978 17.9315L52.4529 17.3235L55.4377 14.7256L55.9628 15.306L55.6312 15.5824C55.797 15.5824 55.9905 15.5824 56.1839 15.6929C56.3774 15.7758 56.5432 15.8864 56.6814 16.0522C56.9301 16.3286 57.0407 16.6602 57.013 17.0195Z" fill="white"/>
<path d="M54.9679 20.4465L54.498 19.8109L57.704 17.517L58.1738 18.1527L54.9679 20.4465ZM58.8371 17.7381L58.3396 17.0472L59.0306 16.5497L59.528 17.2406L58.8371 17.7381Z" fill="white"/>
<path d="M57.1512 24.2053L56.7643 23.5143L58.8924 22.3812C59.1411 22.243 59.3069 22.0772 59.3622 21.8837C59.4175 21.6903 59.3898 21.4968 59.2793 21.2757C59.1687 21.0546 59.0029 20.9164 58.8095 20.8612C58.616 20.8059 58.3673 20.8335 58.1185 20.9717L55.9904 22.1048L55.6035 21.4139L59.0858 19.5622L59.4451 20.2531L59.0858 20.4466C59.4727 20.5571 59.7768 20.7782 59.9702 21.1652C60.1637 21.5245 60.1913 21.8561 60.1084 22.1878C59.9979 22.547 59.7491 22.8234 59.3069 23.0722L57.0959 24.2606L57.1512 24.2053Z" fill="white"/>
<path d="M58.5333 27.9639C58.0635 28.1298 57.6489 28.1021 57.262 27.9087C56.8751 27.7152 56.5987 27.3836 56.4329 26.8861C56.35 26.6097 56.2947 26.3333 56.2947 26.1122C56.2947 25.8911 56.35 25.6424 56.4881 25.3937L57.1238 25.7253C56.9856 26.0293 56.958 26.3333 57.0685 26.6374C57.1791 26.9414 57.3449 27.1348 57.566 27.2177C57.7871 27.3006 58.0358 27.3006 58.3122 27.2177L58.782 27.0519C58.4228 26.9137 58.174 26.6374 58.0358 26.2228C57.8976 25.8635 57.9253 25.5042 58.0635 25.2278C58.174 25.0067 58.3398 24.8133 58.5609 24.6751C58.782 24.5369 59.0861 24.3987 59.4453 24.2882C59.8046 24.1776 60.1086 24.0947 60.385 24.0671C60.6337 24.0671 60.8825 24.0671 61.1036 24.2053C61.38 24.3434 61.6011 24.6198 61.7392 25.0067C61.8774 25.4213 61.8498 25.7806 61.6287 26.1399L62.0156 26.0017L62.2644 26.7479L58.5333 27.9916V27.9639ZM59.7493 26.6926C59.7493 26.6926 60.0257 26.6373 60.1915 26.5821C60.3574 26.5268 60.4956 26.4715 60.6337 26.4163C60.7443 26.361 60.8548 26.2781 60.9654 26.1951C61.0759 26.1122 61.1312 26.0017 61.1589 25.8635C61.1865 25.7253 61.1589 25.5871 61.1312 25.4213C61.0759 25.2555 60.993 25.1449 60.8825 25.062C60.7719 24.9791 60.6614 24.9238 60.5232 24.9238C60.385 24.9238 60.2468 24.9238 60.1363 24.9238C59.9981 24.9238 59.8599 24.9791 59.6941 25.0344C59.5282 25.0897 59.3901 25.1449 59.2519 25.2002C59.1413 25.2555 59.0308 25.3384 58.9202 25.4213C58.8097 25.5042 58.7544 25.6148 58.7268 25.753C58.7268 25.8911 58.7268 26.0293 58.782 26.1951C58.8373 26.361 58.9202 26.4715 59.0031 26.5544C59.1137 26.6374 59.2242 26.6926 59.3624 26.6926C59.5006 26.6926 59.6388 26.6926 59.7493 26.6926Z" fill="white"/>
<path d="M62.8723 44.1594C62.4853 44.3805 62.0431 44.4358 61.5733 44.2976C61.1035 44.1594 60.7442 43.9106 60.5507 43.4961C60.3296 43.1092 60.302 42.6393 60.4402 42.1142L60.7718 40.8982L58.6714 40.3178L58.8925 39.5163L64.2265 41.0087L63.6738 43.0263C63.5356 43.5514 63.2592 43.9106 62.8723 44.1317M61.214 43.0263C61.3246 43.2474 61.518 43.3855 61.7944 43.4684C62.0708 43.5514 62.3195 43.5237 62.513 43.3855C62.7064 43.2473 62.8723 43.0539 62.9552 42.7499L63.2868 41.5891L61.4904 41.0916L61.1587 42.2524C61.0758 42.5288 61.1035 42.8051 61.214 42.9986" fill="white"/>
<path d="M59.6939 47.918L59.3899 47.1166C59.611 47.0337 59.7768 46.8955 59.8874 46.6744C59.9703 46.4809 59.9703 46.2598 59.8874 46.0664C59.8045 45.8729 59.6386 45.7071 59.3899 45.5965L57.2065 44.6016L57.5382 43.883L61.1311 45.5412L60.7994 46.2598L60.4125 46.0664C60.4954 46.2322 60.5507 46.398 60.5507 46.6191C60.5507 46.8402 60.4954 47.0337 60.4125 47.2271C60.2467 47.5588 59.9979 47.8075 59.6663 47.918" fill="white"/>
<path d="M54.636 49.1617L55.0505 48.4984L55.3546 48.6919C55.2993 48.4984 55.2993 48.305 55.3546 48.1391C55.3822 47.9733 55.4651 47.7798 55.6033 47.5864C55.852 47.1994 56.156 46.9507 56.4877 46.8954C56.7917 46.8402 57.0681 46.8955 57.3721 47.0889C57.6485 47.2824 57.8419 47.5311 57.8696 47.8351C57.9248 48.1391 57.8143 48.4984 57.5932 48.8577L57.0404 49.7421L57.2615 49.8803C57.4826 50.0185 57.6761 50.0737 57.8419 50.0185C58.0077 49.9632 58.1736 49.825 58.3394 49.5486C58.4499 49.3828 58.5052 49.217 58.5329 49.0788C58.5329 48.9406 58.5329 48.7748 58.4776 48.609L59.1685 48.4431C59.2514 48.7195 59.2791 48.9682 59.2238 49.1893C59.1962 49.4104 59.0856 49.6592 58.8921 49.9632C58.3118 50.8752 57.6208 51.0963 56.8746 50.5989L54.6636 49.1893L54.636 49.1617ZM56.2666 49.2446L56.543 49.4104L57.0404 48.6366C57.2892 48.222 57.2615 47.918 56.9575 47.7246C56.6535 47.5311 56.3495 47.6417 56.0731 48.0562C55.9073 48.3326 55.852 48.5537 55.8797 48.7748C55.9073 48.9406 56.0455 49.0788 56.2666 49.2446Z" fill="white"/>
<path d="M52.5359 52.4783C52.4807 51.9532 52.6188 51.511 52.9781 51.1241C53.1163 50.9583 53.3098 50.8201 53.5032 50.7095C53.6967 50.599 53.8902 50.5437 54.1389 50.5161C54.36 50.5161 54.6087 50.5161 54.8851 50.6266C55.1615 50.7372 55.4102 50.903 55.6866 51.1241C55.963 51.3728 56.1564 51.5939 56.2946 51.8426C56.4328 52.0914 56.4881 52.3401 56.5157 52.5612C56.5157 52.7823 56.4881 53.0034 56.4052 53.1969C56.3223 53.3903 56.2117 53.5838 56.0459 53.7496C55.7142 54.1365 55.272 54.3576 54.7746 54.3576L54.7193 53.6114C54.9128 53.6114 55.0509 53.5838 55.1615 53.5285C55.272 53.4732 55.3826 53.3903 55.4931 53.2798C55.6866 53.0311 55.7695 52.7823 55.7142 52.5059C55.659 52.2572 55.4655 51.9808 55.1339 51.7045C54.8022 51.4004 54.4982 51.2623 54.2495 51.2346C53.9454 51.2346 53.6967 51.3175 53.5032 51.5663C53.3927 51.6768 53.3374 51.7874 53.3098 51.9256C53.2821 52.0361 53.2821 52.2019 53.3098 52.3954L52.5636 52.4507L52.5359 52.4783Z" fill="white"/>
<path d="M50.3523 53.722L50.7116 53.418C50.9604 53.1969 51.2367 53.0863 51.5131 53.114C51.7895 53.1416 52.0382 53.2798 52.2317 53.5009L53.7241 55.1592L54.0558 54.8551L54.4703 55.2973L54.1387 55.6013L54.8849 56.4305L54.3045 56.9556L53.5583 56.1265L52.9779 56.6239L52.5633 56.1817L53.1437 55.6843L51.6789 54.0537C51.4855 53.8326 51.2644 53.8049 51.0433 53.9984L50.7945 54.2195L50.3247 53.722H50.3523Z" fill="white"/>
<path d="M49.0259 54.7446L49.6615 54.2748L52.0384 57.4254L51.4027 57.8953L49.0259 54.7446ZM51.8449 58.5309L52.5082 58.0335L53.0057 58.6968L52.3424 59.1942L51.8449 58.5309Z" fill="white"/>
<path d="M45.9583 57.2595C46.0688 56.7621 46.3452 56.3751 46.7874 56.1264C46.9808 56.0159 47.2019 55.9329 47.423 55.8777C47.6441 55.85 47.8652 55.85 48.0863 55.8777C48.3074 55.9329 48.5285 56.0435 48.7496 56.2093C48.9707 56.4028 49.1642 56.6239 49.3576 56.9555C49.5511 57.2595 49.6617 57.5636 49.7169 57.8399C49.7722 58.1163 49.7446 58.365 49.7169 58.5861C49.6617 58.8072 49.5511 59.0007 49.4129 59.1665C49.2747 59.3323 49.1089 59.4705 48.9155 59.5811C48.4733 59.8575 48.0034 59.9127 47.5059 59.7745L47.6994 59.0283C47.8652 59.0836 48.0311 59.1113 48.1416 59.1113C48.2798 59.1113 48.3903 59.056 48.5285 58.9731C48.8049 58.8072 48.9431 58.5861 48.9707 58.3098C48.9984 58.061 48.9155 57.757 48.6944 57.3701C48.4733 56.9832 48.2245 56.7344 48.0034 56.6515C47.727 56.541 47.4507 56.5686 47.2019 56.7344C47.0637 56.8173 46.9532 56.9003 46.8979 57.0108C46.815 57.1214 46.7874 57.2595 46.7321 57.4254L45.9859 57.2595H45.9583Z" fill="white"/>
<path d="M42.8627 59.885L45.2395 58.9177C45.1013 58.5861 44.9355 58.365 44.6868 58.2544C44.438 58.1439 44.1893 58.1439 43.8853 58.2544C43.6918 58.3373 43.526 58.4202 43.4155 58.5308C43.3049 58.6413 43.222 58.7795 43.1391 58.973L42.5034 58.7243C42.614 58.4479 42.7522 58.2268 42.918 58.0333C43.0838 57.8675 43.3325 57.7017 43.6365 57.5911C44.134 57.3977 44.6039 57.37 45.0184 57.5635C45.433 57.7293 45.7646 58.1439 46.041 58.8072C46.2897 59.3875 46.3174 59.9127 46.1792 60.3549C46.041 60.797 45.7094 61.1011 45.2395 61.2945C44.742 61.488 44.2998 61.488 43.9129 61.2945C43.4984 61.0734 43.1944 60.7141 42.9733 60.1614L42.8351 59.8574L42.8627 59.885ZM43.8024 60.1061C43.9129 60.3272 43.9958 60.4654 44.1064 60.576C44.3828 60.8247 44.6868 60.88 45.0184 60.7418C45.3777 60.6036 45.5435 60.3549 45.5712 59.9956C45.5712 59.8574 45.5712 59.6639 45.4606 59.4705L43.8024 60.1337V60.1061Z" fill="white"/>
<path d="M36.1467 61.1287C36.1467 60.576 36.3402 60.1338 36.6442 59.7745C36.9482 59.4428 37.3628 59.2217 37.8602 59.1388C38.4406 59.0559 38.9381 59.1665 39.3527 59.4981C39.629 59.7192 39.8225 59.9679 39.933 60.2443C40.0436 60.5207 40.1265 60.9905 40.2371 61.6538C40.32 62.2895 40.3752 62.7869 40.3476 63.091C40.3476 63.395 40.2094 63.699 39.9883 63.9754C39.6843 64.3899 39.2145 64.6387 38.6341 64.7216C38.109 64.8045 37.6668 64.7216 37.2799 64.4452C36.8929 64.1965 36.6166 63.8095 36.4231 63.2844L37.2799 63.1739C37.3904 63.4503 37.5562 63.6713 37.7497 63.8095C37.9708 63.9477 38.2195 64.003 38.5235 63.9477C38.8552 63.8925 39.1039 63.7543 39.2974 63.4779C39.4079 63.3121 39.4909 63.1186 39.4909 62.8975C39.4909 62.6764 39.4909 62.2895 39.3803 61.7367C39.2974 61.184 39.2145 60.7971 39.1592 60.576C39.0763 60.3549 38.9657 60.189 38.7999 60.0508C38.5512 59.8574 38.2748 59.7745 37.9432 59.8297C37.6391 59.8574 37.418 59.9956 37.2522 60.189C37.0864 60.3825 36.9759 60.6312 36.9759 60.9352L36.1467 61.0458V61.1287Z" fill="white"/>
<path d="M31.9459 61.1286L34.5162 61.2115C34.5162 60.8522 34.4333 60.6035 34.2674 60.3824C34.1016 60.1889 33.8529 60.0784 33.5212 60.0784C33.3001 60.0784 33.1343 60.0784 32.9961 60.1613C32.8579 60.2166 32.7197 60.3271 32.5539 60.4653L32.0564 59.9678C32.2775 59.7744 32.4986 59.6086 32.7197 59.5256C32.9408 59.4427 33.2172 59.3874 33.5489 59.4151C34.1016 59.4151 34.5162 59.6085 34.8202 59.9402C35.1242 60.2718 35.29 60.797 35.2624 61.4879C35.2624 62.1235 35.0689 62.621 34.7649 62.9527C34.4609 63.312 34.0463 63.4778 33.5212 63.4501C32.9961 63.4501 32.5816 63.2567 32.3052 62.8974C32.0288 62.5381 31.8906 62.0683 31.8906 61.4879V61.1562L31.9459 61.1286ZM32.7197 61.709C32.7197 61.9577 32.7474 62.1235 32.8027 62.2617C32.9408 62.5934 33.1896 62.7868 33.5765 62.7868C33.9358 62.7868 34.2122 62.6486 34.378 62.317C34.4333 62.1788 34.4885 62.013 34.4885 61.7919L32.7197 61.7366V61.709Z" fill="white"/>
<path d="M27.8001 62.3448L28.4911 61.8474C28.6293 62.0408 28.8227 62.179 29.0162 62.2066C29.2373 62.2343 29.4308 62.2067 29.5966 62.0685C29.79 61.9303 29.873 61.7368 29.9282 61.4604L30.3428 59.1113L31.1166 59.2494L30.4257 63.1463L29.6519 63.0081L29.7348 62.5936C29.7348 62.5936 29.4584 62.787 29.2373 62.87C29.0438 62.9252 28.8227 62.9252 28.6016 62.87C28.2423 62.8147 27.9383 62.6212 27.7449 62.3448" fill="white"/>
<path d="M26.4183 58.1438L26.8605 58.282C27.1921 58.3925 27.4132 58.5584 27.5514 58.8071C27.662 59.0558 27.6896 59.3322 27.6067 59.6362L26.971 61.7919L27.4132 61.9301L27.2474 62.5105L26.8052 62.3723L26.4736 63.4502L25.6997 63.2291L26.0314 62.1512L25.2852 61.9301L25.451 61.3497L26.1972 61.5708L26.8329 59.4427C26.9158 59.1387 26.8328 58.9729 26.5565 58.89L26.2525 58.8071L26.4459 58.1714L26.4183 58.1438Z" fill="white"/>
<path d="M23.0743 61.9025L23.8481 62.2065L23.5441 62.9804L22.7703 62.6764L23.0743 61.9025ZM24.8431 57.5082L25.5893 57.8122L24.1245 61.488L23.3783 61.184L24.8431 57.5082Z" fill="white"/>
<path d="M20.808 59.3046L21.4989 59.6639L22.9913 56.6791L23.7099 57.0384L22.2175 60.0232L22.632 60.2167L22.3557 60.7694L21.9411 60.576L21.6924 61.0458C21.5542 61.3222 21.3607 61.5156 21.0844 61.6262C20.808 61.7367 20.5316 61.7091 20.2276 61.5433L19.7854 61.3222L20.0894 60.7141L20.3934 60.88C20.6422 61.0182 20.8633 60.9352 21.0014 60.6589L21.2225 60.2167L20.5316 59.8574L20.808 59.3046Z" fill="white"/>
<path d="M18.4864 59.5257L19.205 59.9679L18.7628 60.6864L18.0442 60.2442L18.4864 59.5257ZM21.0014 55.5182L21.6923 55.9328L19.6195 59.2769L18.9562 58.8624L21.029 55.5182H21.0014Z" fill="white"/>
<path d="M17.5191 53.5837C18.0166 53.5008 18.4864 53.6114 18.901 53.943C19.0945 54.0812 19.2327 54.247 19.3432 54.4405C19.4538 54.6339 19.5367 54.8274 19.5643 55.0485C19.5919 55.2696 19.5643 55.5183 19.4814 55.7947C19.3985 56.0711 19.2327 56.3475 19.0116 56.6238C18.7905 56.9002 18.5694 57.1213 18.3206 57.2871C18.0719 57.4253 17.8508 57.5082 17.602 57.5359C17.3809 57.5359 17.1598 57.5359 16.9664 57.453C16.7729 57.3977 16.5795 57.2871 16.386 57.149C15.9714 56.8173 15.7503 56.4304 15.6951 55.9053L16.4413 55.8224C16.4413 56.0158 16.4966 56.154 16.5242 56.2646C16.5795 56.3751 16.6624 56.4856 16.8006 56.5686C17.0493 56.762 17.298 56.8173 17.602 56.7344C17.8508 56.6791 18.0995 56.458 18.3759 56.1264C18.6523 55.7671 18.7905 55.4631 18.7905 55.2143C18.7905 54.9103 18.6799 54.6892 18.4312 54.4958C18.3206 54.4128 18.1824 54.3299 18.0719 54.3023C17.9613 54.3023 17.7955 54.3023 17.602 54.3023L17.4915 53.5561L17.5191 53.5837Z" fill="white"/>
<path d="M15.3634 50.6265L15.8885 51.1793L15.6397 51.428C15.8332 51.428 16.0267 51.4833 16.1925 51.5385C16.3583 51.6214 16.4965 51.732 16.6623 51.8978C16.994 52.2295 17.1322 52.5611 17.1322 52.9204C17.1322 53.2244 16.994 53.5008 16.7176 53.7219C16.4689 53.9706 16.1925 54.0535 15.8885 54.0259C15.5845 53.9983 15.2528 53.8325 14.9488 53.5008L14.2302 52.7546L14.0368 52.9481C13.8433 53.1139 13.7604 53.3073 13.7604 53.4732C13.7604 53.6666 13.871 53.8601 14.0921 54.0812C14.2302 54.2194 14.3684 54.3299 14.5066 54.3852C14.6448 54.4405 14.783 54.4681 14.9764 54.4405V55.159C14.7001 55.159 14.4513 55.159 14.2302 55.0485C14.0368 54.9656 13.8157 54.7721 13.5669 54.551C12.8207 53.7495 12.7655 53.0586 13.4288 52.4229L15.3357 50.5989L15.3634 50.6265ZM14.8659 52.1742L14.6448 52.3953L15.2805 53.0586C15.6121 53.4179 15.9161 53.4455 16.1925 53.1968C16.4689 52.9481 16.4412 52.644 16.0819 52.2571C15.8608 52.036 15.6397 51.8978 15.4186 51.8978C15.2528 51.8978 15.087 51.9807 14.8659 52.1742Z" fill="white"/>
<path d="M13.7602 48.4432L14.0366 48.8302C14.2301 49.1065 14.313 49.3829 14.2577 49.6593C14.2024 49.9356 14.0366 50.1567 13.7879 50.3502L11.9638 51.6768L12.2402 52.0361L11.7427 52.3954L11.4663 52.0361L10.5543 52.6994L10.0845 52.0637L10.9965 51.4004L10.5543 50.7924L11.0518 50.4331L11.494 51.0411L13.2628 49.7422C13.5115 49.5487 13.5391 49.3553 13.3733 49.1065L13.1799 48.8302L13.7326 48.4432H13.7602Z" fill="white"/>
<path d="M8.8133 49.4382L9.2555 50.1568L8.53692 50.599L8.09473 49.8804L8.8133 49.4382ZM12.876 47.0338L13.2906 47.7247L9.89116 49.7698L9.4766 49.0789L12.876 47.0338Z" fill="white"/>
<path d="M9.25564 44.0488C9.58729 43.9106 9.8913 43.8001 10.14 43.7724C10.3888 43.7448 10.6375 43.7724 10.8862 43.8554C11.3008 43.9935 11.6048 44.2976 11.7983 44.7398C11.9917 45.182 12.0194 45.5965 11.8536 46.0111C11.7706 46.2598 11.6048 46.4533 11.4114 46.6191C11.2179 46.7849 10.9415 46.9231 10.6099 47.0889C10.2782 47.2271 10.0019 47.3377 9.72548 47.3653C9.47674 47.393 9.228 47.3653 8.97927 47.2824C8.56471 47.1442 8.2607 46.8402 8.06723 46.398C7.87377 45.9558 7.84613 45.5412 8.01196 45.1267C8.09487 44.8779 8.2607 44.6845 8.45416 44.5187C8.64762 44.3528 8.92399 44.2146 9.228 44.0488M9.55965 44.7674C9.06218 44.9885 8.78581 45.2096 8.67526 45.4583C8.59234 45.6518 8.61998 45.8729 8.70289 46.094C8.78581 46.3151 8.95163 46.4533 9.14509 46.5362C9.39383 46.6191 9.75311 46.5362 10.2506 46.3427C10.7481 46.1216 11.0244 45.9005 11.135 45.6518C11.2179 45.4583 11.2179 45.2372 11.135 45.0161C11.0521 44.795 10.8862 44.6568 10.6928 44.5739C10.444 44.491 10.0848 44.5739 9.58729 44.7674" fill="white"/>
<path d="M9.94639 39.3228L10.1399 40.0967L7.81832 40.7047C7.54194 40.7876 7.34848 40.8981 7.23793 41.0916C7.12738 41.2574 7.09974 41.4785 7.18266 41.6996C7.23793 41.9207 7.37612 42.1142 7.54194 42.2247C7.7354 42.3353 7.9565 42.3629 8.23288 42.28L10.5544 41.672L10.7479 42.4459L6.93392 43.4408L6.74046 42.6946L7.12738 42.584C6.7681 42.3906 6.547 42.0865 6.43645 41.672C6.3259 41.2851 6.35353 40.9258 6.51936 40.6494C6.71282 40.3178 7.01683 40.0967 7.48667 39.9861L9.91876 39.3505L9.94639 39.3228Z" fill="white"/>
<path d="M26.8608 30.009C26.8608 30.921 26.7779 31.6672 26.5844 32.2476C26.4186 32.828 26.1146 33.3255 25.6724 33.7953C24.7604 34.735 23.5996 35.2048 22.1625 35.2048C20.8359 35.2048 19.7304 34.7626 18.846 33.9058C18.2656 33.3255 17.9339 32.7174 17.7958 32.0265C17.6576 31.3356 17.6023 30.313 17.6023 28.8758C17.6023 27.4387 17.6576 26.4161 17.7958 25.7252C17.9339 25.0342 18.2932 24.4262 18.846 23.8458C19.7304 22.9614 20.8635 22.5469 22.1625 22.5469C23.4614 22.5469 24.5945 22.9338 25.396 23.68C26.1699 24.4262 26.6674 25.3935 26.8608 26.5267H24.4011C24.1247 25.3106 23.3785 24.7026 22.1625 24.7026C21.5268 24.7026 21.0017 24.9237 20.6148 25.3659C20.3937 25.6423 20.2278 26.0016 20.1449 26.4438C20.062 26.886 20.0344 27.7151 20.0344 28.8482C20.0344 29.9813 20.0897 30.8105 20.1449 31.2803C20.2278 31.7225 20.3937 32.1094 20.6148 32.3582C21.0017 32.8004 21.5268 32.9938 22.1625 32.9938C22.9087 32.9938 23.4891 32.7727 23.9036 32.3029C24.2629 31.8883 24.4564 31.3356 24.4564 30.6446V30.2024H22.1625V28.1573H26.8608V29.9813V30.009Z" fill="white"/>
<path d="M40.3752 35.122H37.9431V27.8534L35.5663 32.5794H33.908L31.5312 27.8534V35.122H29.0991V22.6575H31.4759L34.7371 29.4011L37.9707 22.6575H40.3752V35.122Z" fill="white"/>
<path d="M50.8499 23.7907C51.5962 24.5369 51.9554 25.4489 51.9554 26.5544C51.9554 27.6599 51.5962 28.5719 50.8499 29.3182C50.1037 30.0644 49.1088 30.4236 47.8651 30.4236H45.4607V35.122H43.0286V22.6852H47.8651C49.1364 22.6852 50.1314 23.0445 50.8499 23.7907ZM49.0535 27.7981C49.3852 27.4941 49.551 27.0795 49.551 26.5544C49.551 26.0293 49.3852 25.6147 49.0535 25.3107C48.7219 25.0067 48.2797 24.8409 47.7546 24.8409H45.4883V28.2403H47.7546C48.3073 28.2403 48.7495 28.0745 49.0535 27.7704" fill="white"/>
<path d="M23.1297 41.1191C23.1297 41.9206 23.1021 42.5287 23.0468 42.9432C22.9916 43.3578 22.8534 43.7447 22.6046 44.0763L23.3232 44.7949L22.4664 45.6517L21.7202 44.9331C21.2504 45.2371 20.6976 45.3753 20.0344 45.3753C19.15 45.3753 18.4037 45.0713 17.7957 44.4909C17.4088 44.104 17.1601 43.6894 17.0772 43.2196C16.9942 42.7497 16.939 42.0588 16.939 41.1191C16.939 40.1795 16.9942 39.4609 17.0772 39.0187C17.1601 38.5489 17.4088 38.1343 17.7957 37.7474C18.4037 37.167 19.15 36.863 20.0344 36.863C20.9187 36.863 21.6926 37.167 22.273 37.7474C22.6599 38.1343 22.9086 38.5489 22.9916 39.0187C23.0745 39.4885 23.1297 40.1795 23.1297 41.1191ZM21.4991 41.1191C21.4991 40.3453 21.4715 39.7926 21.4162 39.4885C21.3609 39.1845 21.2504 38.9358 21.0846 38.77C20.8358 38.466 20.4765 38.3278 20.0344 38.3278C19.5922 38.3278 19.2605 38.466 18.9841 38.77C18.8183 38.9634 18.7078 39.1845 18.6801 39.4885C18.6248 39.7926 18.5972 40.3453 18.5972 41.1191C18.5972 41.893 18.5972 42.4457 18.6801 42.7221C18.7354 43.0261 18.8459 43.2748 18.9841 43.4407C19.2605 43.7447 19.6198 43.9105 20.0344 43.9105C20.2278 43.9105 20.4213 43.8552 20.5871 43.7447L19.8685 43.0261L20.7253 42.1417L21.3609 42.7774C21.4715 42.4734 21.5268 41.893 21.5268 41.0915" fill="white"/>
<path d="M29.5137 45.2925H28.0213V44.7397C27.6344 45.1543 27.1093 45.3754 26.5013 45.3754C25.8932 45.3754 25.4234 45.1819 25.0641 44.8226C24.6496 44.4081 24.4285 43.8277 24.4285 43.0815V39.157H25.9485V42.8604C25.9485 43.2473 26.0591 43.5237 26.2525 43.7172C26.446 43.9106 26.6947 43.9935 26.9711 43.9935C27.2475 43.9935 27.4962 43.9106 27.6897 43.7172C27.8831 43.5237 27.9937 43.2473 27.9937 42.8604V39.157H29.5137V45.2925Z" fill="white"/>
<path d="M35.7047 45.2926H34.2122V44.7675C33.9911 44.9886 33.7977 45.1267 33.5489 45.2097C33.3278 45.2926 33.0515 45.3478 32.6922 45.3478C32.0013 45.3478 31.5038 45.1544 31.1169 44.7951C30.7852 44.4358 30.6194 43.9936 30.6194 43.4132C30.6194 42.8881 30.8128 42.4736 31.1721 42.1419C31.5314 41.8103 32.0565 41.6444 32.7475 41.6444H34.157V41.3404C34.157 41.0088 34.0741 40.76 33.8806 40.5942C33.6871 40.4284 33.4108 40.3731 33.0238 40.3731C32.554 40.3731 32.1671 40.5389 31.8354 40.8982L30.8681 39.9586C31.1721 39.6269 31.4761 39.4058 31.8078 39.2676C32.1394 39.1571 32.554 39.0742 33.0791 39.0742C34.8203 39.0742 35.677 39.7927 35.677 41.2299V45.2649L35.7047 45.2926ZM34.1846 43.0263V42.6946H33.0238C32.4158 42.6946 32.1118 42.9434 32.1118 43.4132C32.1118 43.8831 32.4158 44.1042 33.0515 44.1042C33.4384 44.1042 33.7424 43.9936 33.9635 43.8001C34.1293 43.662 34.2122 43.4132 34.2122 43.0263" fill="white"/>
<path d="M39.7672 45.2925H38.9104C38.3301 45.2925 37.8879 45.1266 37.5838 44.7673C37.2798 44.4357 37.114 44.0211 37.114 43.5237V36.9183H38.6341V43.4407C38.6341 43.8 38.8275 43.9935 39.1868 43.9935H39.7672V45.2925Z" fill="white"/>
<path d="M42.3654 38.1343H40.79V36.8906H42.3654V38.1343ZM42.3654 45.2924H40.8453V39.3504H42.3654V45.2924Z" fill="white"/>
<path d="M46.6491 45.2925H45.82C45.2396 45.2925 44.7974 45.1267 44.4934 44.7674C44.1894 44.4358 44.0512 44.0212 44.0512 43.5237V40.4836H43.4155V39.3228H44.0512V37.4988H45.5712V39.3228H46.6491V40.4836H45.5712V43.4132C45.5712 43.7725 45.7371 43.9659 46.0964 43.9659H46.6491V45.2649V45.2925Z" fill="white"/>
<path d="M52.7842 39.157L50.1587 46.2598C50.0205 46.6191 49.8823 46.8678 49.6888 47.0613C49.3848 47.3653 48.9426 47.5311 48.3622 47.5311H47.7542V46.1492H48.1135C48.3346 46.1492 48.5004 46.1216 48.611 46.0387C48.7215 45.9558 48.8044 45.8176 48.8873 45.5965L49.1361 44.8503L47.0356 39.157H48.6386L49.9099 42.9433L51.126 39.157H52.7289H52.7842Z" fill="white"/>
<path d="M9.14525 32.9385C9.14525 32.9385 9.00707 32.7451 8.89652 32.7451L7.37646 32.6069L6.76844 31.1974C6.76844 31.1974 6.63025 31.0316 6.5197 31.0316C6.40915 31.0316 6.2986 31.0868 6.27097 31.1974L5.66295 32.6069L4.14289 32.7451C4.14289 32.7451 3.94943 32.828 3.89415 32.9385C3.86652 33.0491 3.89415 33.1596 3.97707 33.2426L5.1102 34.2375L4.77855 35.7299C4.77855 35.7299 4.77855 35.951 4.8891 36.0063C4.94437 36.0339 4.99965 36.0616 5.05492 36.0616C5.1102 36.0616 5.16547 36.0616 5.19311 36.0339L6.49207 35.2601L7.79102 36.0339C7.79102 36.0339 8.01212 36.0892 8.09503 36.0339C8.17795 35.9787 8.23322 35.8681 8.20558 35.7575L7.87393 34.2651L9.03471 33.2702C9.03471 33.2702 9.14525 33.0767 9.11762 32.9662" fill="white"/>
<path d="M64.3093 32.9385C64.3093 32.9385 64.1711 32.7451 64.0606 32.7451L62.5405 32.6069L61.9325 31.1974C61.9325 31.1974 61.7943 31.0316 61.6838 31.0316C61.5732 31.0316 61.4627 31.0868 61.435 31.1974L60.827 32.6069L59.307 32.7451C59.307 32.7451 59.1135 32.828 59.0582 32.9385C59.0306 33.0491 59.0582 33.1596 59.1411 33.2426L60.2743 34.2375L59.9426 35.7299C59.9426 35.7299 59.9426 35.951 60.0532 36.0063C60.1084 36.0339 60.1637 36.0616 60.219 36.0616C60.2743 36.0616 60.3295 36.0616 60.3572 36.0339L61.6561 35.2601L62.9551 36.0339C62.9551 36.0339 63.1762 36.0892 63.2591 36.0339C63.342 35.9787 63.3973 35.8681 63.3696 35.7575L63.038 34.2651L64.1988 33.2702C64.1988 33.2702 64.3093 33.0767 64.2817 32.9662" fill="white"/>
</svg>
