<svg width="71" height="71" viewBox="0 0 71 71" fill="none" xmlns="http://www.w3.org/2000/svg">
<path fill-rule="evenodd" clip-rule="evenodd" d="M19.2141 4.6429C19.0759 4.83636 17.9152 5.44438 17.6111 5.6102C17.3071 5.77603 17.086 5.91421 16.782 6.10767C16.478 6.30114 16.3122 6.46696 16.0082 6.60515L13.2444 8.67795C11.7244 9.92163 9.65159 11.9668 8.43554 13.5145L6.39037 16.223C6.25218 16.5546 6.08636 16.6928 5.8929 16.9968C5.72707 17.2732 5.58889 17.5219 5.39542 17.8259C5.2296 18.1023 4.62158 19.2907 4.42812 19.4289L3.01861 22.5795C0.724711 28.1623 0.6418 33.5239 0.53125 33.828V37.255C0.669437 37.6696 0.807623 40.1846 0.94581 40.9031C1.52619 44.1643 2.41059 47.4808 3.87537 50.3551C5.8929 54.3349 7.57878 56.9328 10.7018 60.0558C15.9805 65.3622 22.2266 68.5129 29.7992 69.8395C30.4073 69.95 33.2539 70.1711 33.5303 70.2817H37.0402C37.3166 70.1711 38.9472 70.0882 39.417 70.0606C46.7133 69.342 54.2307 65.6109 59.3436 60.6362C60.8913 59.1162 61.8033 58.1489 63.1299 56.3801C63.4063 55.9931 63.959 55.0811 64.2354 54.8324C64.4565 54.3902 64.8987 53.7545 65.1751 53.257L66.1424 51.6541L67.5242 48.531C69.8734 42.8654 69.9011 37.6143 70.0392 37.2274V33.8556L69.5694 29.7929C69.3483 28.4663 69.0719 27.2779 68.7127 26.0066C68.2705 24.4589 67.5795 22.4414 66.861 20.9766C66.6675 20.562 66.2253 19.7882 66.1424 19.4012C65.8936 19.2078 65.7831 18.8761 65.6725 18.6274C65.5067 18.3234 65.3685 18.1023 65.1751 17.7983C64.9263 17.3561 64.346 16.5822 64.2078 16.1677C64.1249 16.1124 64.2354 16.2506 64.0696 16.0295L63.7103 15.4767C63.5445 15.228 63.3786 15.0069 63.1852 14.7582C61.9968 13.2105 61.1953 12.2708 59.8411 10.9166C59.0948 10.1704 58.2104 9.31361 57.3537 8.62268C56.8839 8.26339 56.4693 7.93174 55.9995 7.57245C55.7507 7.37899 54.7558 6.74333 54.6729 6.5775C54.203 6.38404 53.4016 5.80366 52.8488 5.47202C52.2131 5.11273 51.6604 4.80872 50.9971 4.47707C48.4545 3.15047 45.4143 2.10025 42.5677 1.49223C41.7662 1.3264 40.9371 1.16058 40.1356 1.05003L37.5377 0.718384H33.2815C32.8393 0.911845 31.7891 0.884208 31.1811 0.939483C30.4902 0.994757 29.9098 1.1053 29.2188 1.24349C27.9199 1.46459 26.8144 1.74097 25.5984 2.07262C24.4652 2.40427 23.2768 2.79119 22.2819 3.20575C21.6738 3.45449 19.4905 4.53235 19.1865 4.58762M22.1437 32.5566V21.3082L22.503 22.4137C22.6412 22.6072 22.8899 23.5192 22.9175 23.768C23.1386 23.9891 23.4426 25.1222 23.4979 25.4815C23.6085 25.6473 24.4099 28.107 24.4099 28.3558C24.4099 28.3558 24.4376 28.3834 24.4376 28.411L24.5205 28.5769C24.5205 28.5769 24.5758 28.7703 24.6034 28.798C24.6587 28.9361 24.6863 29.102 24.7416 29.2125C24.8245 29.4889 24.9351 29.7653 25.018 30.0693L25.8471 32.529H28.7214V14.7305H26.0405C25.9853 16.1677 26.1511 26.1171 25.9853 26.4488C25.5983 25.6473 22.807 15.2833 22.42 14.7305H19.4628V32.529H22.1713L22.1437 32.5566ZM32.9222 32.1421C33.8343 32.4461 34.0554 32.7777 35.2991 32.7777C35.7413 32.7777 36.2111 32.6948 36.598 32.5843C37.0126 32.4461 37.2613 32.2526 37.6482 32.1144C37.8417 31.8104 38.3392 31.6999 38.9196 30.7326C39.0025 30.5944 39.1407 30.2904 39.2236 30.1798C39.5552 29.0191 39.5276 28.6874 39.5276 27.3885C39.5276 26.3659 39.5276 25.3433 39.5276 24.2931C39.5276 22.3861 39.6381 20.0646 39.5276 18.2128C39.2789 16.1953 37.593 14.5371 35.4096 14.5094C33.1434 14.4818 31.3746 16.1124 31.1258 18.1576C30.9876 19.2631 31.0982 20.8937 31.0982 22.0544C31.0982 23.381 31.0982 24.7353 31.0982 26.0619C31.0982 27.9688 30.8218 29.6547 32.0102 31.1195C32.2313 31.3959 32.9223 31.921 33.0052 32.0868M34.9398 17.2179C35.6031 17.0797 36.0729 17.3284 36.4046 17.6877C36.7915 18.1023 36.8191 18.5721 36.7915 19.2631C36.7915 20.562 36.9297 28.3834 36.6809 29.0191C36.2664 30.0416 34.8845 30.318 34.1107 29.4613C33.7237 29.0467 33.6961 28.5769 33.6961 27.8307V19.954C33.6961 18.5445 33.6132 17.4943 34.9121 17.1903M48.3715 26.0342C48.261 25.8408 47.3213 22.6348 47.349 22.4137C47.2108 22.2479 47.1279 21.9163 47.0726 21.6675L46.3264 19.0972C46.1882 18.8209 45.9395 18.0747 45.9671 17.743L45.8842 17.6325C45.8842 17.6325 45.8289 17.5496 45.8289 17.5219L45.4143 16.1124C45.3038 15.8084 45.0274 15.0345 45.0551 14.7029H41.9873C41.9044 17.6048 41.9873 20.6449 41.9873 23.5745C41.9873 24.8735 41.9044 31.8104 42.0426 32.5014C42.7059 32.4185 44.143 32.6119 44.6681 32.4185V21.4464L44.8616 21.7228C45.442 23.0217 47.9017 31.5893 48.3715 32.4737H51.1906V31.5341V14.6753H48.565C48.4268 15.0622 48.5097 19.7605 48.5097 20.562C48.5097 21.3635 48.5926 26.0895 48.4545 26.4211L48.3439 26.0342H48.3715ZM33.3368 67.435C33.6685 67.3521 34.1383 67.4074 34.4976 67.435H36.5151H37.0955C37.289 67.2968 38.8367 67.2416 39.2236 67.2139L40.1632 67.131C40.4396 66.9375 42.5953 66.6059 43.0928 66.4953C48.0123 65.3069 52.3237 62.9578 56.11 59.8071C56.4417 59.5307 56.801 59.2267 57.0497 58.978C60.6702 55.3851 62.2731 53.3399 64.567 48.5863C65.7555 46.1542 66.6122 43.1141 67.0268 40.3504C67.1097 39.8529 67.3308 37.255 67.4413 37.0892V36.2048V35.4033H3.26735C3.12916 39.5765 4.45576 44.9935 5.94817 48.227C10.9229 59.0885 20.9276 66.4677 32.867 67.3245L33.3368 67.4074V67.435ZM25.1562 47.2597C25.1562 48.918 25.2391 53.644 25.1562 54.9706C24.8521 59.5584 18.993 61.3272 16.174 57.7896C14.7092 55.9379 15.0685 54.0585 15.0685 51.2671V43.5563C15.0685 42.2297 15.2067 41.4006 15.7871 40.4333C17.5282 37.6143 21.3146 37.1997 23.6085 39.4107C25.2391 40.9584 25.2667 42.6996 25.1562 45.5186H21.8673C21.8673 44.3302 22.116 42.589 21.4251 41.8428C20.6513 40.986 19.4352 40.9308 18.6614 41.8428C17.9704 42.6443 18.2192 44.3025 18.2192 45.5186V53.6992C18.2192 54.4178 18.1363 54.9982 18.4679 55.5509C19.3799 57.071 21.812 56.6012 21.8673 54.556C21.8673 53.5334 21.9779 51.3777 21.8397 50.4933H20.0985V47.2874H25.1838L25.1562 47.2597ZM27.9475 38.2776C28.1686 38.2776 32.176 38.1947 32.5353 38.3329L35.4925 53.3676C35.6307 53.0636 37.3995 43.3352 37.6482 42.0363C37.8141 41.1242 38.0904 38.9409 38.3945 38.2776H42.7335V59.4478H39.5552C39.4723 57.8172 39.6658 46.7899 39.4999 46.403C39.3341 46.8175 38.3115 52.0134 38.1181 52.953C37.9246 53.8374 36.9297 59.0609 36.7086 59.4478H34.1659C33.5579 56.4906 32.5906 52.5385 31.872 49.526L31.0982 46.3477V59.4478H27.9199V38.3052L27.9475 38.2776ZM49.864 38.0565C52.4342 37.6696 54.2307 39.1896 55.0598 40.682C55.9442 42.285 55.6402 45.8779 55.6402 48.0336C55.6402 49.4984 55.7507 54.7495 55.502 55.8273C54.507 60.0558 48.565 61.2995 46.1329 57.0157C45.4973 55.9102 45.5249 54.9982 45.5249 53.5887C45.5249 51.6817 45.3867 43.0036 45.6631 41.8152C46.1053 39.9082 47.7635 38.3329 49.8363 38.0288M50.0298 41.2348C48.4821 41.6493 48.6203 42.8101 48.6203 44.5513V53.9756C48.6203 54.8324 48.6756 55.3851 49.1454 55.8273C50.0574 56.7393 51.688 56.463 52.1855 55.2193C52.4342 54.5836 52.2961 49.1667 52.2961 48.2547C52.2961 46.6793 52.2961 45.104 52.2961 43.5563C52.2961 42.7272 52.2961 42.2297 51.771 41.7046C51.384 41.3177 50.7484 41.0413 50.0298 41.2348ZM2.24476 33.3858V33.137C2.24476 32.6672 2.24476 31.2024 2.4935 30.926C2.41059 30.0416 3.21207 26.9739 3.48845 25.9789C4.98087 20.9213 7.63405 16.4164 11.0611 12.713C12.443 11.2206 14.1565 9.70053 15.8424 8.45685C16.9755 7.65536 18.1363 6.90916 19.4905 6.16295C20.0432 5.85894 23.111 4.28361 23.6361 4.33888C23.7466 4.22833 23.6361 4.2836 23.8572 4.20069L25.3772 3.70323L28.3621 2.90174L30.3243 2.54245C30.6007 2.48718 30.7389 2.45954 31.0153 2.48717C31.3469 2.26608 32.5906 2.26607 33.0881 2.23844H33.6132C33.8066 2.15553 34.2488 2.18317 34.4699 2.15553C34.9398 2.15553 36.4875 2.10026 36.902 2.2108L37.0126 2.26608H37.5377L39.3618 2.45954C39.6658 2.40427 40.4396 2.51481 40.6607 2.59773C41.0753 2.62536 42.1255 2.73592 42.3742 2.95702C42.8164 2.95702 44.8892 3.48213 45.2762 3.70323C45.5802 3.7585 46.7409 4.11778 47.0173 4.33888C48.1505 4.33888 53.1528 7.32371 54.3412 8.15283C57.6301 10.4744 60.4214 13.2934 62.6877 16.5546C64.8434 19.7053 67.165 24.5694 67.773 28.3834L68.077 29.9864C68.1599 30.2075 68.2428 30.7879 68.1875 31.0919L68.4363 33.1094V33.6345C68.4363 33.6345 68.4363 33.6345 68.4363 33.6898C68.4363 33.7174 68.4363 33.7451 68.4363 33.7451V37.0615V37.5866C68.0217 45.408 64.567 52.5385 59.6752 57.9278C56.3311 61.6312 51.6051 64.8095 46.5751 66.6059C44.9998 67.1586 42.4848 67.9601 40.6884 68.0983C40.4673 68.1812 39.8316 68.2918 39.5276 68.2089C39.2512 68.4023 37.8693 68.4576 37.5653 68.4576H37.0402H36.9849C36.9297 68.5681 34.6081 68.5405 34.4147 68.5129C34.2765 68.5129 34.083 68.5129 33.9448 68.5129L33.5579 68.43H33.0881C24.8245 68.0154 16.0358 63.7316 10.7571 57.6514C8.02098 54.5007 6.00345 51.5435 4.42812 47.4808C3.62664 45.408 3.04625 43.3629 2.63169 41.0137C2.43822 39.9358 1.80257 34.0214 2.24476 33.3305" fill="white"/>
</svg>
