<svg width="210" height="64" viewBox="0 0 210 64" fill="none" xmlns="http://www.w3.org/2000/svg">
<path d="M0 31.1484H24.3625V37.4698H7.0626V44.0219H22.2856V50.3433H7.0626V57.1262H24.5932V63.4476H0V31.1484Z" fill="white"/>
<path d="M28.5229 51.1264C28.5229 44.0638 33.9212 38.2529 41.4873 38.2529C46.1444 38.2529 49.0044 40.0081 51.312 42.5884L47.2073 46.742C45.6829 45.3155 44.2074 44.3016 41.4383 44.3016C37.935 44.3016 35.4386 47.3923 35.4386 51.1264C35.4386 54.8605 37.886 57.9513 41.711 57.9513C44.0676 57.9513 45.6829 56.9373 47.3891 55.322L51.4938 59.4757C49.0953 62.1049 46.3262 63.9999 41.3894 63.9999C33.9632 63.9999 28.5159 58.2799 28.5159 51.1264H28.5229Z" fill="white"/>
<path d="M54.1859 51.1264C54.1859 44.0219 59.9059 38.2529 67.6118 38.2529C75.3178 38.2529 80.9469 43.924 80.9469 51.1264C80.9469 58.3289 75.2269 63.9999 67.5209 63.9999C59.815 63.9999 54.1859 58.3219 54.1859 51.1264ZM74.0241 51.1264C74.0241 47.4833 71.3949 44.3016 67.5209 44.3016C63.647 44.3016 61.1087 47.3923 61.1087 51.1264C61.1087 54.8605 63.7379 57.9513 67.6118 57.9513C71.4858 57.9513 74.0241 54.8605 74.0241 51.1264Z" fill="white"/>
<path d="M80.2891 29.8186H90.0718L95.8897 49.1463L102.33 29.7207H110.302L116.749 49.1463L122.567 29.8186H132.161L120.993 63.4603H112.931L106.204 44.2305L99.5189 63.4603H91.4563L80.2891 29.8186Z" fill="white"/>
<path d="M136.035 39.4531H145.342V63.2212H136.035V39.4531Z" fill="white"/>
<path d="M148.922 58.2577L154.076 52.1042C157.37 54.7334 161.041 56.1109 164.908 56.1109C167.39 56.1109 168.726 55.2509 168.726 53.7265C168.726 52.3419 167.628 51.5797 163.097 50.5308C155.985 48.9085 150.496 46.9016 150.496 39.9369C150.496 33.7344 155.412 29.2451 163.432 29.2451C169.11 29.2451 173.551 30.7695 177.173 33.6855L172.544 40.2236C169.488 38.0769 166.145 36.9301 163.187 36.9301C160.943 36.9301 159.852 37.8811 159.852 39.1747C159.852 40.6991 160.999 41.3704 165.628 42.4193C173.313 44.0906 178.082 46.5729 178.082 52.9153C178.082 59.7401 172.69 63.7959 164.579 63.7959C158.663 63.7959 153.027 61.9358 148.929 58.2577H148.922Z" fill="white"/>
<path d="M182.577 29.8193H209.443V37.6931H191.738V42.7488H207.772V50.0491H191.738V55.3426H209.681V63.2163H182.577V29.8193Z" fill="white"/>
<path d="M141.511 34.5116C141.469 34.5116 141.441 34.5116 141.427 34.5116C140.609 34.4906 139.882 33.9942 139.56 33.2389C139.427 32.9313 136.406 25.596 141.497 13.6595C146.776 2.0866 155.615 0.121662 155.993 0.0447425C156.762 -0.116089 157.552 0.163618 158.049 0.77198C158.314 1.10064 164.496 8.91145 157.825 21.5892C151.224 34.134 142.518 34.5046 141.518 34.5046L141.511 34.5116ZM155.496 4.61096C153.217 5.56196 148.559 8.27511 145.336 15.3517C142.273 22.5262 142.588 27.6798 143.035 30.0783C145.385 29.4839 150.056 27.3371 154.105 19.6312C158.104 12.0302 156.58 6.82763 155.496 4.60396V4.61096Z" fill="#F36C21"/>
<path d="M134.447 25.5264C134.014 25.5264 133.573 25.3935 133.203 25.1138C131.217 23.6453 129.371 21.7014 127.727 19.3518C122.756 11.8627 124.909 5.75108 125.007 5.49935C125.231 4.88399 125.734 4.40849 126.364 4.2127C126.678 4.1148 134.077 2.01 139.342 12.1634C139.874 13.1913 139.475 14.457 138.447 14.9884C137.419 15.5198 136.153 15.1213 135.622 14.0933C133.084 9.19147 130.238 8.25446 128.706 8.14957C128.51 9.82781 128.615 13.0934 131.196 16.9883C132.552 18.9253 134.077 20.5406 135.699 21.7363C136.629 22.4286 136.825 23.7362 136.139 24.6732C135.727 25.2257 135.091 25.5264 134.454 25.5264H134.447Z" fill="#F36C21"/>
</svg>
