<svg width="129" height="22" viewBox="0 0 129 22" fill="none" xmlns="http://www.w3.org/2000/svg">
<path d="M10.6996 0.420399C11.0369 -0.140132 11.8496 -0.140133 12.1869 0.420398L15.4676 5.87175C15.5888 6.07312 15.7864 6.21673 16.0154 6.26976L22.2137 7.70531C22.851 7.85291 23.1022 8.62579 22.6733 9.11982L18.5026 13.9245C18.3485 14.102 18.273 14.3343 18.2933 14.5685L18.8434 20.9071C18.9 21.5588 18.2425 22.0365 17.6402 21.7813L11.7818 19.2994C11.5654 19.2077 11.3211 19.2077 11.1047 19.2994L5.24633 21.7813C4.64395 22.0365 3.9865 21.5588 4.04307 20.9071L4.59317 14.5685C4.61349 14.3343 4.53799 14.102 4.38392 13.9245L0.213163 9.11982C-0.215693 8.62579 0.0354285 7.85291 0.672767 7.70531L6.87109 6.26976C7.10005 6.21673 7.29773 6.07312 7.41891 5.87175L10.6996 0.420399Z" fill="#FFC700"/>
<path d="M37.2279 0.420399C37.5652 -0.140132 38.3779 -0.140133 38.7152 0.420398L41.9959 5.87175C42.1171 6.07312 42.3147 6.21673 42.5437 6.26976L48.742 7.70531C49.3794 7.85291 49.6305 8.62579 49.2016 9.11982L45.0309 13.9245C44.8768 14.102 44.8013 14.3343 44.8216 14.5685L45.3717 20.9071C45.4283 21.5588 44.7709 22.0365 44.1685 21.7813L38.3101 19.2994C38.0937 19.2077 37.8494 19.2077 37.633 19.2994L31.7746 21.7813C31.1723 22.0365 30.5148 21.5588 30.5714 20.9071L31.1215 14.5685C31.1418 14.3343 31.0663 14.102 30.9122 13.9245L26.7415 9.11982C26.3126 8.62579 26.5637 7.85291 27.2011 7.70531L33.3994 6.26976C33.6284 6.21673 33.826 6.07312 33.9472 5.87175L37.2279 0.420399Z" fill="#FFC700"/>
<path d="M63.7562 0.420399C64.0936 -0.140132 64.9062 -0.140133 65.2435 0.420398L68.5242 5.87175C68.6454 6.07312 68.8431 6.21673 69.072 6.26976L75.2703 7.70531C75.9077 7.85291 76.1588 8.62579 75.73 9.11982L71.5592 13.9245C71.4051 14.102 71.3296 14.3343 71.3499 14.5685L71.9001 20.9071C71.9566 21.5588 71.2992 22.0365 70.6968 21.7813L64.8385 19.2994C64.622 19.2077 64.3777 19.2077 64.1613 19.2994L58.303 21.7813C57.7006 22.0365 57.0431 21.5588 57.0997 20.9071L57.6498 14.5685C57.6701 14.3343 57.5946 14.102 57.4406 13.9245L53.2698 9.11982C52.8409 8.62579 53.0921 7.85291 53.7294 7.70531L59.9277 6.26976C60.1567 6.21673 60.3544 6.07312 60.4756 5.87175L63.7562 0.420399Z" fill="#FFC700"/>
<path d="M90.2847 0.420399C90.622 -0.140132 91.4346 -0.140133 91.772 0.420398L95.0526 5.87175C95.1738 6.07312 95.3715 6.21673 95.6005 6.26976L101.799 7.70531C102.436 7.85291 102.687 8.62579 102.258 9.11982L98.0876 13.9245C97.9336 14.102 97.8581 14.3343 97.8784 14.5685L98.4285 20.9071C98.4851 21.5588 97.8276 22.0365 97.2252 21.7813L91.3669 19.2994C91.1505 19.2077 90.9062 19.2077 90.6897 19.2994L84.8314 21.7813C84.229 22.0365 83.5716 21.5588 83.6281 20.9071L84.1783 14.5685C84.1986 14.3343 84.1231 14.102 83.969 13.9245L79.7982 9.11982C79.3694 8.62579 79.6205 7.85291 80.2578 7.70531L86.4562 6.26976C86.6851 6.21673 86.8828 6.07312 87.004 5.87175L90.2847 0.420399Z" fill="#FFC700"/>
<path d="M116.813 0.420399C117.15 -0.140132 117.963 -0.140133 118.3 0.420398L121.581 5.87175C121.702 6.07312 121.9 6.21673 122.129 6.26976L128.327 7.70531C128.964 7.85291 129.216 8.62579 128.787 9.11982L124.616 13.9245C124.462 14.102 124.386 14.3343 124.407 14.5685L124.957 20.9071C125.013 21.5588 124.356 22.0365 123.754 21.7813L117.895 19.2994C117.679 19.2077 117.434 19.2077 117.218 19.2994L111.36 21.7813C110.757 22.0365 110.1 21.5588 110.156 20.9071L110.707 14.5685C110.727 14.3343 110.651 14.102 110.497 13.9245L106.327 9.11982C105.898 8.62579 106.149 7.85291 106.786 7.70531L112.984 6.26976C113.213 6.21673 113.411 6.07312 113.532 5.87175L116.813 0.420399Z" fill="#FFC700"/>
</svg>
