<svg width="84" height="26" viewBox="0 0 84 26" fill="none" xmlns="http://www.w3.org/2000/svg">
<path d="M0 12.4781H9.75975V15.0105H2.82932V17.6353H8.92776V20.1677H2.82932V22.885H9.8522V25.4174H0V12.4781Z" fill="white"/>
<path d="M11.4265 20.4815C11.4265 17.6521 13.5891 15.3242 16.6201 15.3242C18.4858 15.3242 19.6315 16.0274 20.556 17.0611L18.9116 18.725C18.3009 18.1536 17.7098 17.7474 16.6005 17.7474C15.1971 17.7474 14.197 18.9856 14.197 20.4815C14.197 21.9774 15.1775 23.2155 16.7098 23.2155C17.6538 23.2155 18.3009 22.8093 18.9844 22.1622L20.6288 23.8262C19.668 24.8795 18.5586 25.6387 16.5809 25.6387C13.6059 25.6387 11.4237 23.3472 11.4237 20.4815H11.4265Z" fill="white"/>
<path d="M21.7073 20.4815C21.7073 17.6353 23.9987 15.3242 27.0858 15.3242C30.1728 15.3242 32.4279 17.5961 32.4279 20.4815C32.4279 23.3668 30.1364 25.6387 27.0494 25.6387C23.9623 25.6387 21.7073 23.364 21.7073 20.4815ZM29.6546 20.4815C29.6546 19.022 28.6013 17.7474 27.0494 17.7474C25.4974 17.7474 24.4806 18.9856 24.4806 20.4815C24.4806 21.9774 25.5339 23.2155 27.0858 23.2155C28.6377 23.2155 29.6546 21.9774 29.6546 20.4815Z" fill="white"/>
<path d="M32.1646 11.9459H36.0836L38.4143 19.6887L40.9943 11.9067H44.1878L46.7706 19.6887L49.1012 11.9459H52.9446L48.471 25.423H45.241L42.5462 17.7194L39.8681 25.423H36.6382L32.1646 11.9459Z" fill="white"/>
<path d="M54.4966 15.8061H58.2251V25.3277H54.4966V15.8061Z" fill="white"/>
<path d="M59.6594 23.3388L61.724 20.8737C63.0434 21.9269 64.5141 22.4788 66.0632 22.4788C67.0577 22.4788 67.5927 22.1342 67.5927 21.5236C67.5927 20.9689 67.1529 20.6636 65.3377 20.2434C62.4887 19.5935 60.2897 18.7895 60.2897 15.9994C60.2897 13.5146 62.259 11.7162 65.4721 11.7162C67.7468 11.7162 69.5256 12.3269 70.9767 13.495L69.1222 16.1142C67.8981 15.2542 66.559 14.7948 65.3741 14.7948C64.4749 14.7948 64.0379 15.1758 64.0379 15.694C64.0379 16.3047 64.4973 16.5737 66.3517 16.9938C69.4304 17.6634 71.3409 18.6578 71.3409 21.1986C71.3409 23.9327 69.1811 25.5574 65.9316 25.5574C63.5616 25.5574 61.3038 24.8123 59.6622 23.3388H59.6594Z" fill="white"/>
<path d="M73.1421 11.9459H83.9047V15.1002H76.8118V17.1255H83.2352V20.0501H76.8118V22.1707H84V25.3249H73.1421V11.9459Z" fill="white"/>
<path d="M56.69 13.8256C56.6732 13.8256 56.662 13.8256 56.6564 13.8256C56.3286 13.8172 56.0373 13.6183 55.9084 13.3157C55.8552 13.1925 54.645 10.2539 56.6844 5.47207C58.7994 0.835906 62.3402 0.0487385 62.4915 0.0179241C62.7996 -0.0465059 63.1162 0.0655463 63.3151 0.30926C63.4215 0.440921 65.8979 3.56998 63.2254 8.64875C60.581 13.6743 57.0934 13.8228 56.6928 13.8228L56.69 13.8256ZM62.2926 1.84718C61.3794 2.22816 59.5137 3.31506 58.2223 6.14998C56.9953 9.02413 57.1214 11.0887 57.3007 12.0495C58.2419 11.8114 60.1132 10.9514 61.7352 7.86438C63.3375 4.81936 62.7268 2.73519 62.2926 1.84438V1.84718Z" fill="white"/>
<path d="M53.8607 10.2259C53.687 10.2259 53.5106 10.1727 53.3621 10.0606C52.5665 9.47234 51.827 8.69357 51.1687 7.75233C49.1769 4.75213 50.0397 2.30379 50.079 2.20294C50.1686 1.95643 50.3703 1.76594 50.6224 1.6875C50.7485 1.64828 53.7123 0.805091 55.8216 4.87259C56.0345 5.28438 55.8749 5.79142 55.4631 6.00432C55.0513 6.21722 54.5442 6.05754 54.3313 5.64575C53.3145 3.68203 52.1743 3.30666 51.5608 3.26464C51.4824 3.93695 51.5244 5.24516 52.5581 6.80549C53.1016 7.58145 53.7122 8.22855 54.3622 8.70758C54.7347 8.98491 54.8132 9.50875 54.5386 9.88413C54.3734 10.1054 54.1184 10.2259 53.8635 10.2259H53.8607Z" fill="white"/>
</svg>
