<svg width="41" height="41" viewBox="0 0 41 41" fill="none" xmlns="http://www.w3.org/2000/svg">
<path d="M20.5 41C9.21133 41 0 31.7981 0 20.5C0 9.20187 9.184 0 20.5 0C31.816 0 41 9.20187 41 20.5C41 31.7981 31.816 41 20.5 41ZM20.5 1.03453C9.758 1.03453 1.01133 9.77357 1.01133 20.5272C1.01133 31.2809 9.758 40.0199 20.5 40.0199C31.242 40.0199 39.9887 31.2809 39.9887 20.5272C39.9887 9.77357 31.242 1.03453 20.5 1.03453Z" fill="#56ABE3"/>
<path d="M19.2754 11.0623L14.3403 12.9142C13.203 13.3378 12.2733 14.6774 12.2733 15.8792V23.1982C12.2733 24.3606 13.0447 25.8874 13.9843 26.5868L18.237 29.7488C19.6315 30.793 21.9259 30.793 23.3204 29.7488L27.5731 26.5868C28.5127 25.8874 29.2841 24.3606 29.2841 23.1982V15.8792C29.2841 14.6676 28.3544 13.3279 27.2171 12.9043L22.282 11.0623C21.4413 10.7569 20.0963 10.7569 19.2754 11.0623Z" stroke="#56ABE3" stroke-width="1.5" stroke-linecap="round" stroke-linejoin="round"/>
</svg>
