<svg width="1440" height="361" viewBox="0 0 1440 361" fill="none" xmlns="http://www.w3.org/2000/svg">
<path d="M386.928 107.019C302.792 101.577 174.239 75 174.239 75L166 264.04H592.903L922.159 286.581V107.019C922.159 107.019 888.974 123.994 865.402 129.816C801.594 145.576 761.495 92.5205 697.264 107.019C663.24 114.699 652.406 144.763 617.315 142.112C587.257 139.84 580.208 116.699 552.319 107.019C492.631 86.302 451.326 111.185 386.928 107.019Z" fill="#100F38"/>
<path d="M71.7518 89.1839C56.1098 79.7916 51.0913 69.2969 36.0083 59.0187C22.7048 49.9532 0 39 0 39V288L641 272.369C641 272.369 579.466 183.519 522.12 151.982C482.364 130.119 454.043 133.555 411.712 117.704C352.7 95.6059 327.647 58.6059 265.296 49.1465C188.996 37.5708 138.031 128.982 71.7518 89.1839Z" fill="#050625"/>
<path d="M766.701 169.694C719.907 213.669 677.475 308.171 677.475 308.171L660 335.653L1543 361L1523.67 0C1523.67 0 1442.6 21.256 1390.23 33.085C1312.05 50.7449 1268.58 65.3279 1188.74 72.0399C1126.2 77.2978 1090.54 66.3575 1028.03 72.0399C973.818 76.9679 941.763 76.7699 890.613 95.5196C837.719 114.908 807.865 131.011 766.701 169.694Z" fill="#050625"/>
</svg>
