<svg width="41" height="41" viewBox="0 0 41 41" fill="none" xmlns="http://www.w3.org/2000/svg">
<path d="M20.5 41C9.21133 41 0 31.7981 0 20.5C0 9.20187 9.184 0 20.5 0C31.816 0 41 9.20187 41 20.5C41 31.7981 31.816 41 20.5 41ZM20.5 1.03453C9.758 1.03453 1.01133 9.77357 1.01133 20.5272C1.01133 31.2809 9.758 40.0199 20.5 40.0199C31.242 40.0199 39.9887 31.2809 39.9887 20.5272C39.9887 9.77357 31.242 1.03453 20.5 1.03453Z" fill="#56ABE3"/>
<path d="M7.91211 20.8096V15.9196H9.82801V20.7698C9.82801 22.1613 10.5465 22.8769 11.704 22.8769C12.8615 22.8769 13.58 22.1613 13.58 20.8096V15.8799H15.4959V20.7301C15.4959 23.3142 14.0191 24.6261 11.704 24.6261C9.38896 24.6261 7.95203 23.354 7.95203 20.8096H7.91211Z" fill="#56ABE3"/>
<path d="M16.5327 23.2351L17.6503 21.8834C18.4087 22.5195 19.2469 22.917 20.2448 22.917C21.0032 22.917 21.4821 22.599 21.4821 22.1219C21.4821 21.6051 21.2027 21.3665 19.7259 21.0087C17.9697 20.5714 16.852 20.0944 16.852 18.3849C16.852 16.7946 18.0894 15.761 19.8856 15.761C21.1229 15.761 22.2006 16.1585 23.0787 16.8344L22.0809 18.2656C21.3225 17.7488 20.5641 17.4307 19.8456 17.4307C19.1272 17.4307 18.728 17.7488 18.728 18.1861C18.728 18.7824 19.0873 18.9414 20.604 19.339C22.3603 19.7763 23.3581 20.4124 23.3581 21.9231C23.3581 23.6724 22.0409 24.6265 20.2049 24.6265C18.8877 24.6265 17.5705 24.1892 16.5327 23.2351Z" fill="#56ABE3"/>
<path d="M27.5099 15.8403H29.2662L32.9782 24.5071H30.9825L30.1842 22.5988H26.552L25.7537 24.5071H23.7979L27.5099 15.8403ZM29.5057 20.8893L28.3481 18.1064L27.1906 20.8893H29.4657H29.5057Z" fill="#56ABE3"/>
</svg>
