<svg width="41" height="41" viewBox="0 0 41 41" fill="none" xmlns="http://www.w3.org/2000/svg">
<path d="M19.7344 31.0903H19.6797C19.4064 31.0903 19.1877 30.9269 19.0784 30.6819C18.9964 30.4913 17.1377 25.9721 20.3357 18.4581C23.643 11.2436 29.1097 10.0185 29.3284 9.96409C29.5744 9.90964 29.8204 9.99131 29.9844 10.2091C30.1484 10.3997 33.9204 15.164 29.7657 23.0318C25.6384 30.8725 20.3084 31.0903 19.707 31.0903H19.7344ZM29.219 11.407C27.9617 11.8426 24.0804 13.5577 21.6204 18.9754C19.215 24.6108 19.871 28.4223 20.2264 29.6746C21.5384 29.5112 25.3924 28.4767 28.6177 22.3784C31.761 16.4435 29.957 12.5504 29.2464 11.407H29.219Z" fill="#56ABE3"/>
<path d="M15.1151 25.237C14.9785 25.237 14.8418 25.1826 14.7051 25.1009C13.4751 24.1753 12.2998 22.9774 11.2611 21.5073C8.19981 16.9336 9.51181 13.2583 9.56647 13.0949C9.64847 12.9044 9.81247 12.741 10.0038 12.6866C10.1951 12.6321 14.5138 11.407 17.6845 17.5325C17.8485 17.8592 17.7391 18.2676 17.3838 18.4582C17.0558 18.6215 16.6458 18.5126 16.4545 18.1587C14.2678 13.9661 11.6711 13.83 10.7145 13.9389C10.4958 14.8645 10.1951 17.5053 12.3545 20.745C13.2838 22.079 14.3498 23.1952 15.4705 24.0119C15.7711 24.2297 15.8258 24.6653 15.6071 24.9648C15.4705 25.1554 15.2791 25.237 15.0605 25.237H15.1151Z" fill="#56ABE3"/>
<path d="M20.5 41C9.21133 41 0 31.7981 0 20.5C0 9.20187 9.184 0 20.5 0C31.816 0 41 9.20187 41 20.5C41 31.7981 31.816 41 20.5 41ZM20.5 1.03453C9.758 1.03453 1.01133 9.77357 1.01133 20.5272C1.01133 31.2809 9.758 40.0199 20.5 40.0199C31.242 40.0199 39.9887 31.2809 39.9887 20.5272C39.9887 9.77357 31.242 1.03453 20.5 1.03453Z" fill="#56ABE3"/>
</svg>
