<svg width="41" height="41" viewBox="0 0 41 41" fill="none" xmlns="http://www.w3.org/2000/svg">
<path d="M20.5 41C9.21133 41 0 31.7981 0 20.5C0 9.20187 9.184 0 20.5 0C31.816 0 41 9.20187 41 20.5C41 31.7981 31.816 41 20.5 41ZM20.5 1.03453C9.758 1.03453 1.01133 9.77357 1.01133 20.5272C1.01133 31.2809 9.758 40.0199 20.5 40.0199C31.242 40.0199 39.9887 31.2809 39.9887 20.5272C39.9887 9.77357 31.242 1.03453 20.5 1.03453Z" fill="white"/>
<path d="M18.3199 22.28H21.4099V29.48C21.4099 30.54 22.7299 31.04 23.4299 30.24L30.9999 21.64C31.6599 20.89 31.1299 19.72 30.1299 19.72H27.0399V12.52C27.0399 11.46 25.7199 10.96 25.0199 11.76L17.4499 20.36C16.7999 21.11 17.3299 22.28 18.3199 22.28Z" stroke="white" stroke-width="1.5" stroke-miterlimit="10" stroke-linecap="round" stroke-linejoin="round"/>
<path d="M17.5 13H10.5" stroke="white" stroke-width="1.5" stroke-miterlimit="10" stroke-linecap="round" stroke-linejoin="round"/>
<path d="M16.5 29H10.5" stroke="white" stroke-width="1.5" stroke-miterlimit="10" stroke-linecap="round" stroke-linejoin="round"/>
<path d="M13.5 21H10.5" stroke="white" stroke-width="1.5" stroke-miterlimit="10" stroke-linecap="round" stroke-linejoin="round"/>
</svg>
