<svg width="41" height="41" viewBox="0 0 41 41" fill="none" xmlns="http://www.w3.org/2000/svg">
<path d="M20.5 41C9.21133 41 0 31.7981 0 20.5C0 9.20187 9.184 0 20.5 0C31.816 0 41 9.20187 41 20.5C41 31.7981 31.816 41 20.5 41ZM20.5 1.03453C9.758 1.03453 1.01133 9.77357 1.01133 20.5272C1.01133 31.2809 9.758 40.0199 20.5 40.0199C31.242 40.0199 39.9887 31.2809 39.9887 20.5272C39.9887 9.77357 31.242 1.03453 20.5 1.03453Z" fill="white"/>
<path d="M19.3745 11.1968L14.4394 13.0487C13.3021 13.4723 12.3724 14.812 12.3724 16.0137V23.3327C12.3724 24.4951 13.1439 26.0219 14.0834 26.7213L18.3361 29.8834C19.7306 30.9275 22.0251 30.9275 23.4196 29.8834L27.6722 26.7213C28.6118 26.0219 29.3832 24.4951 29.3832 23.3327V16.0137C29.3832 14.8021 28.4536 13.4624 27.3162 13.0389L22.3811 11.1968C21.5405 10.8914 20.1954 10.8914 19.3745 11.1968Z" stroke="white" stroke-width="1.5" stroke-linecap="round" stroke-linejoin="round"/>
</svg>
